<?xml version="1.0" encoding="utf-8"?>
<!-- Generator: Adobe Illustrator 15.0.0, SVG Export Plug-In . SVG Version: 6.00 Build 0)  -->
<!DOCTYPE svg PUBLIC "-//W3C//DTD SVG 1.1//EN" "http://www.w3.org/Graphics/SVG/1.1/DTD/svg11.dtd">
<svg version="1.1" id="Livello_1" xmlns="http://www.w3.org/2000/svg" xmlns:xlink="http://www.w3.org/1999/xlink" x="0px" y="0px"
	 width="64px" height="64px" viewBox="0 0 64 64" enable-background="new 0 0 64 64" xml:space="preserve">
<path fill-rule="evenodd" clip-rule="evenodd" d="M30.031,9.181c1.149,0,2.299,0,3.448,0c0,0.992,0,1.984,0,2.976
	c0.39,0.083,0.784,0.162,1.28,0.139c0.307-0.833,0.193-2.087,0.472-2.948c1.063-0.117,2.112,0.235,3.115,0.361
	c-0.056,0.538-0.125,0.95-0.223,1.53c-0.059,0.346-0.313,1.25-0.027,1.502c0.183,0.161,0.66,0.12,0.862,0
	c0.288-0.171,0.403-0.848,0.528-1.307c0.142-0.523,0.242-1.044,0.417-1.418c1.01,0.158,1.902,0.434,2.642,0.862
	c-0.318,1.431-1.105,2.868-1.279,4.366c-0.035,0.308-0.003,0.543-0.111,0.807c-0.108,0.266-0.354,0.482-0.5,0.75
	c-0.426,0.779-0.667,1.798-1.141,2.559c-4.473-0.868-10.774-0.688-15.296,0c-0.623-0.669-0.803-1.812-1.307-2.67
	c-0.176-0.3-0.456-0.52-0.528-0.779c-0.075-0.269-0.006-0.599-0.028-0.862c-0.06-0.734-0.381-1.431-0.611-2.086
	c-0.242-0.687-0.487-1.349-0.64-2.058c0.621-0.529,1.625-0.674,2.531-0.918c0.219,0.37,0.343,0.86,0.5,1.446
	c0.118,0.442,0.238,1.255,0.556,1.391c0.217,0.092,0.669,0.058,0.834-0.083c0.276-0.238,0.071-1.098,0-1.502
	c-0.095-0.539-0.222-0.97-0.223-1.53c0.954-0.224,1.988-0.366,3.087-0.445c0.26,0.927,0.133,2.24,0.584,2.976
	c0.27,0.065,0.602,0.005,0.862-0.028c0.3-0.738,0.112-1.963,0.167-2.948C30,9.225,29.998,9.186,30.031,9.181z M30.698,12.769
	c-0.785,0.06-1.572,0.263-2.42,0.167c-0.212-0.909-0.264-1.978-0.417-2.948c-0.593,0.093-1.259,0.113-1.807,0.25
	c0.08,1.013,0.355,1.833,0.417,2.864c-0.745,0.201-1.491,0.401-2.392,0.445c-0.37-0.845-0.434-1.995-0.945-2.698
	c-0.401,0.127-0.886,0.172-1.224,0.362c0.147,0.635,0.353,1.25,0.556,1.863c0.198,0.596,0.388,1.263,0.723,1.697
	c0.165,0.211,0.479,0.309,0.557,0.556c0.109,0.345-0.058,0.687-0.055,1.001c0.003,0.413,0.153,0.832,0.445,1.057
	c0.845,0.652,2.267-0.068,2.809-0.5c0.136-0.108,0.358-0.353,0.556-0.361c0.226-0.01,0.569,0.246,0.834,0.333
	c1.298,0.43,2.538-0.073,3.504-0.528c0.931,0.483,2.289,0.963,3.532,0.528c0.233-0.082,0.563-0.355,0.807-0.333
	c0.167,0.015,0.362,0.279,0.5,0.389c0.172,0.138,0.426,0.257,0.585,0.334c0.732,0.355,2.23,0.645,2.558-0.278
	c0.19-0.536-0.075-1.147,0.084-1.641c0.083-0.256,0.424-0.367,0.584-0.584c0.316-0.43,0.514-1.118,0.695-1.696
	c0.195-0.619,0.381-1.245,0.557-1.863c-0.377-0.142-0.821-0.218-1.225-0.334c-0.552,0.673-0.566,1.881-1.001,2.67
	c-0.863-0.044-1.673-0.144-2.308-0.417c-0.036-0.936,0.347-1.84,0.278-2.809c-0.475-0.203-1.132-0.222-1.725-0.306
	c-0.146,0.994-0.192,2.088-0.445,2.976c-0.891,0-1.713-0.066-2.475-0.195c0-0.982,0-1.965,0-2.947c-0.667,0-1.335,0-2.003,0
	C30.713,10.727,30.779,11.821,30.698,12.769z"/>
<path fill-rule="evenodd" clip-rule="evenodd" d="M24.635,20.306c4.839,0,9.678,0,14.517,0c0.127,1.12,0.059,2.284,0.445,3.031
	c0.727,1.407,2.768,1.28,4.699,1.474c-0.018,3.401-0.055,7.037-0.055,10.541c0,1.819,0.009,3.612-0.14,5.172
	c-0.134,1.422-0.903,2.717-1.612,3.672c-0.761,1.022-1.689,1.848-2.781,2.53c-1.086,0.679-2.266,1.148-3.31,1.975
	c-1.418,1.121-2.619,2.668-3.448,4.478c-0.126,0.273-0.246,0.576-0.417,0.918c-0.126,0.25-0.292,0.709-0.585,0.723
	c-0.37,0.019-0.657-0.723-0.75-0.917c-0.568-1.187-1.061-2.296-1.78-3.227c-0.991-1.28-2.273-2.285-3.616-3.031
	c-1.457-0.811-2.785-1.557-3.866-2.781c-0.717-0.813-1.416-1.933-1.891-3.114c-0.151-0.376-0.391-0.847-0.445-1.196
	c-0.092-0.591-0.028-1.31-0.028-1.975c0-4.563-0.047-9.247-0.083-13.767c1.939-0.213,4.01-0.01,4.756-1.418
	c0.381-0.72,0.349-1.818,0.361-3.004C24.605,20.35,24.603,20.31,24.635,20.306z M25.748,21.334
	c-0.074,1.001-0.139,1.871-0.473,2.531c-0.761,1.505-2.582,1.793-4.728,1.919c0,3.063,0,6.39,0,9.538
	c0,1.678-0.041,3.265,0.111,4.646c0.146,1.329,0.731,2.456,1.391,3.393c0.651,0.926,1.477,1.707,2.42,2.337
	c0.949,0.633,2.021,1.088,3.003,1.779c0.874,0.615,1.756,1.393,2.503,2.253c0.552,0.636,0.966,1.341,1.446,2.142
	c0.089,0.148,0.327,0.646,0.583,0.611c0.146-0.02,0.408-0.506,0.501-0.667c0.204-0.357,0.277-0.549,0.417-0.778
	c0.89-1.47,2.204-2.688,3.532-3.616c0.975-0.681,2.038-1.152,2.976-1.779c1.836-1.229,3.402-3.121,3.727-5.785
	c0.164-1.353,0.167-2.927,0.167-4.589c0-3.153,0-6.442,0-9.511c-2.075-0.091-3.821-0.31-4.589-1.696
	c-0.396-0.715-0.685-1.607-0.64-2.809c-4.107,0-8.213,0-12.32,0C25.743,21.256,25.746,21.295,25.748,21.334z"/>
<path fill-rule="evenodd" clip-rule="evenodd" d="M12.58,29.718c0.702,0.271,1.406,0.864,1.946,1.363
	c0.583,0.537,1.072,1.108,1.419,1.835c0.551,1.159,0.696,2.523,1,3.895c0.095,0.425,0.279,0.838,0.278,1.279
	c-0.323-0.013-0.545-0.272-0.751-0.445c-0.231-0.195-0.469-0.38-0.695-0.557c-0.44-0.345-0.934-0.663-1.362-1.112
	c-0.549-0.575-0.785-1.308-0.89-2.28c-0.095-0.881,0.025-1.934-0.334-2.809c-0.148-0.363-0.464-0.651-0.611-1.085
	C12.58,29.774,12.58,29.746,12.58,29.718z"/>
<path fill-rule="evenodd" clip-rule="evenodd" d="M51.127,29.87c0.019,0,0.036,0,0.056,0c-0.108,0.476-0.515,0.806-0.695,1.251
	c-0.307,0.758-0.217,1.724-0.278,2.531c-0.064,0.847-0.209,1.59-0.64,2.141c-0.432,0.553-0.967,0.917-1.475,1.309
	c-0.509,0.392-0.986,0.834-1.64,1.14c0.229-0.844,0.442-1.71,0.61-2.587c0.365-1.887,0.85-3.346,2.086-4.421
	C49.736,30.726,50.414,30.211,51.127,29.87z"/>
<path fill-rule="evenodd" clip-rule="evenodd" d="M17.585,41.648c-0.422-0.202-0.487-0.642-0.723-0.974
	c-0.06-0.082-0.12-0.175-0.195-0.249c-0.724-0.724-2.129-0.554-3.059-1.112c-0.449-0.271-0.793-0.654-1.113-0.974
	c-0.322-0.323-0.726-0.627-0.917-1.141c0.635-0.315,1.419-0.569,2.392-0.5c1.019,0.072,2.453,0.82,3.003,1.585
	c0.3,0.415,0.489,0.981,0.612,1.529C17.71,40.37,17.856,41.061,17.585,41.648z"/>
<path fill-rule="evenodd" clip-rule="evenodd" d="M52.211,37.268c-0.21,0.58-0.611,0.948-1.001,1.307
	c-0.376,0.348-0.789,0.69-1.335,0.946c-1.089,0.512-2.528,0.426-3.171,1.418c-0.188,0.295-0.144,0.681-0.417,0.945
	c-0.168-0.093-0.229-0.301-0.25-0.444c-0.148-1.014,0.351-2.655,0.862-3.226c0.543-0.606,1.759-1.266,2.754-1.363
	C50.554,36.763,51.506,37.003,52.211,37.268z"/>
<path fill-rule="evenodd" clip-rule="evenodd" d="M47.567,40.494c0.027,0,0.055,0,0.083,0c0.453,0.847,0.757,1.925,0.667,3.171
	c-0.154,2.168-2.44,2.552-3.893,3.42c0.801-0.121,1.768-0.49,2.641-0.167c0.431,0.159,0.847,0.551,1.28,0.834
	c0.47,0.309,0.982,0.498,1.252,0.834c-0.98,0.486-1.846,0.999-3.06,1.029c-1.322,0.035-2.348-0.771-3.728-0.667
	c-0.512,0.039-0.997,0.221-1.528,0.194c0.334-0.394,0.832-0.638,1.279-0.918c0.452-0.282,0.927-0.539,1.307-0.89
	c-0.062-0.06-0.201,0.155-0.306,0.056c0.189-0.64,0.668-1.114,1.057-1.612c0.399-0.513,0.709-1.022,0.973-1.669
	c0.265-0.647,0.415-1.327,0.751-1.892c0.336-0.561,0.88-0.858,1.196-1.446C47.522,40.653,47.559,40.588,47.567,40.494z"/>
<path fill-rule="evenodd" clip-rule="evenodd" d="M22.452,49.019c-0.685,0.111-1.188-0.278-1.975-0.223
	c-1.196,0.085-2.283,0.815-3.56,0.724c-1.174-0.084-1.89-0.689-2.865-1.085c0.459-0.31,0.966-0.646,1.501-0.973
	c0.502-0.308,1.06-0.689,1.696-0.751c0.549-0.054,1.134,0.066,1.753,0.083c-1.505-0.772-3.464-1.302-3.615-3.393
	c-0.067-0.909,0.288-2.247,0.639-2.948c0.045-0.008,0.048,0.026,0.083,0.028c0.293,0.546,0.779,0.924,1.14,1.445
	c0.364,0.528,0.555,1.135,0.807,1.78c0.245,0.628,0.507,1.2,0.862,1.725c0.354,0.523,0.857,0.93,1.112,1.474
	c0.057,0.12,0.057,0.253,0.111,0.361c0.197,0.393,0.759,0.659,1.14,0.891C21.714,48.418,22.174,48.62,22.452,49.019z M19.949,47.322
	c-0.157-0.24-0.407-0.39-0.723-0.473C19.36,47.115,19.686,47.188,19.949,47.322z"/>
<path fill-rule="evenodd" clip-rule="evenodd" fill="#FFFFFF" d="M20.853,45.391c0.316,0.083,0.565,0.232,0.723,0.473
	C21.313,45.729,20.987,45.656,20.853,45.391z"/>
<path fill-rule="evenodd" clip-rule="evenodd" d="M28.182,53.941c-0.083,0.066-0.188-0.131-0.278-0.223
	c-0.646-0.646-1.38-1.533-2.643-1.585c-1.066-0.043-1.972,0.299-2.947,0.251c-1.188-0.06-1.885-1.051-3.115-1.142
	c0.278-0.516,0.803-0.893,1.28-1.251c0.516-0.388,1.102-0.755,1.891-0.75c1.531,0.007,2.796,0.666,3.782,1.474
	C27.159,51.54,28.041,52.53,28.182,53.941z"/>
<path fill-rule="evenodd" clip-rule="evenodd" d="M44.535,51.313c-0.117,0.124-0.347,0.102-0.5,0.14
	c-0.666,0.16-1.354,0.766-2.059,0.973c-1.104,0.323-2.308-0.205-3.421-0.167c-1.029,0.034-1.753,0.597-2.279,1.168
	c-0.172,0.187-0.346,0.44-0.612,0.529c0.026-1.279,0.969-2.203,1.835-2.977c0.901-0.804,1.99-1.479,3.366-1.585
	c1.307-0.102,1.987,0.401,2.697,0.945C43.935,50.624,44.321,50.928,44.535,51.313z"/>
</svg>
