<?xml version="1.0" encoding="utf-8"?>
<!-- Generator: Adobe Illustrator 15.0.0, SVG Export Plug-In . SVG Version: 6.00 Build 0)  -->
<!DOCTYPE svg PUBLIC "-//W3C//DTD SVG 1.1//EN" "http://www.w3.org/Graphics/SVG/1.1/DTD/svg11.dtd">
<svg version="1.1" id="Livello_1" xmlns="http://www.w3.org/2000/svg" xmlns:xlink="http://www.w3.org/1999/xlink" x="0px" y="0px"
	 width="64px" height="64px" viewBox="0 0 64 64" enable-background="new 0 0 64 64" xml:space="preserve">
<path fill="none" stroke="#333333" stroke-width="1.6449" stroke-miterlimit="10" d="M9.588,24.542c0,0-0.323,1.458-0.323,2.073
	c0,1.234,0,11.583,0,11.583s0.309,1.439,2.21,1.439s15.296-13.254,19.666-14.436v-3.033c0,0,2.158,0.744,3.135,1.72
	c0,0,12.617,0.285,14.828,0.285c0,0,8.808,5.937,8.808,9.227c0,1.988-16.587,8.431-16.587,8.431v-9.073"/>
<path fill="none" stroke="#333333" stroke-width="0.8225" stroke-miterlimit="10" d="M39.922,40.917c0,0-11.459-0.875-17.271-8.042"
	/>
<path fill="none" stroke="#333333" stroke-width="0.8225" stroke-miterlimit="10" d="M8.719,24.75c0,0,5.408,0.919,6.637,1.865
	c0.977,0.753,5.232,4.416,5.232,4.416"/>
</svg>
