<?xml version="1.0" encoding="utf-8"?>
<!-- Generator: Adobe Illustrator 15.0.0, SVG Export Plug-In . SVG Version: 6.00 Build 0)  -->
<!DOCTYPE svg PUBLIC "-//W3C//DTD SVG 1.1//EN" "http://www.w3.org/Graphics/SVG/1.1/DTD/svg11.dtd">
<svg version="1.1" id="Livello_1" xmlns="http://www.w3.org/2000/svg" xmlns:xlink="http://www.w3.org/1999/xlink" x="0px" y="0px"
	 width="64px" height="64px" viewBox="0 0 64 64" enable-background="new 0 0 64 64" xml:space="preserve">
<circle fill="none" stroke="#333333" stroke-width="1.3262" stroke-miterlimit="10" cx="15.017" cy="37.564" r="9.54"/>
<circle fill="#333333" cx="15.018" cy="37.564" r="1.241"/>
<circle fill="none" stroke="#333333" stroke-width="1.3262" stroke-miterlimit="10" cx="48.983" cy="37.564" r="9.541"/>
<circle fill="#333333" cx="48.983" cy="37.564" r="1.241"/>
<path fill="none" stroke="#333333" stroke-width="0.8062" stroke-miterlimit="10" d="M15.018,37.564c0,0,1.375-13.771,26.367-13.771
	"/>
<path fill="none" stroke="#333333" stroke-width="0.8062" stroke-miterlimit="10" d="M49.347,37.564l-9.271-15.767
	c0,0-0.653-1.024-0.401-1.277s1.949-0.335,1.949-0.638c0-0.451-0.673-2.989-1.612-2.989c-0.94,0-2.855,0-2.855,0"/>
<line fill="none" stroke="#333333" stroke-width="1.3624" stroke-miterlimit="10" x1="37.155" y1="16.894" x2="33.258" y2="16.894"/>
<line fill="none" stroke="#333333" stroke-width="0.8062" stroke-miterlimit="10" x1="15.018" y1="37.564" x2="30.504" y2="38.806"/>
<line fill="none" stroke="#333333" stroke-width="1.6124" stroke-miterlimit="10" x1="31.209" y1="38.806" x2="25.801" y2="26.702"/>
<circle fill="#333333" cx="31.209" cy="38.806" r="2.049"/>
<line fill="none" stroke="#333333" stroke-width="0.8062" stroke-miterlimit="10" x1="32.284" y1="39.198" x2="33.762" y2="41.818"/>
<line fill="none" stroke="#333333" stroke-width="1.3262" stroke-miterlimit="10" x1="32.284" y1="41.818" x2="35.173" y2="41.818"/>
<line fill="none" stroke="#333333" stroke-width="0.8062" stroke-miterlimit="10" x1="25.801" y1="26.702" x2="24.558" y2="23.794"/>
<path fill="#333333" d="M26.929,22.344h-6.62c0,0-0.084,0.774,0.783,1.641c0.867,0.867,2.142-0.392,2.525-0.559
	c0.384-0.168,3.312-0.392,3.312-0.392s0.484,0.336,0.484-0.335S26.929,22.344,26.929,22.344z"/>
</svg>
