<?xml version="1.0" encoding="utf-8"?>
<!-- Generator: Adobe Illustrator 15.0.0, SVG Export Plug-In . SVG Version: 6.00 Build 0)  -->
<!DOCTYPE svg PUBLIC "-//W3C//DTD SVG 1.1//EN" "http://www.w3.org/Graphics/SVG/1.1/DTD/svg11.dtd">
<svg version="1.1" id="Livello_1" xmlns="http://www.w3.org/2000/svg" xmlns:xlink="http://www.w3.org/1999/xlink" x="0px" y="0px"
	 width="64px" height="64px" viewBox="0 0 64 64" enable-background="new 0 0 64 64" xml:space="preserve">
<g>
	<path fill="#D6DE23" d="M40.93,11.978c1.538,0,11.089,12.422,11.089,12.422c0.45,0.628,0.625,1.307,0.625,1.307v16.204H40.93
		H29.216V25.707c0,0,0.174-0.679,0.625-1.307C29.842,24.4,39.392,11.978,40.93,11.978z"/>
	<path fill="#231F20" d="M40.561,12.113L23.262,22.204c0,0,0.185-0.112,0.33-0.112c0.145,0,0.3,0.094,0.357,0.127
		s0.361,0.206,0.788,0.602c0.428,0.396,0.956,0.919,1.072,1.041c0.117,0.121,1.51,1.64,1.51,1.64l1.389,1.604l2.309,2.785
		l2.237,2.796l1.279,1.638c0,0,0.224,0.271,0.349,0.502c0.124,0.231,0.201,0.363,0.284,0.587s0.14,0.407,0.14,0.407v6.091v10.113
		l17.338-10.113V25.707c0,0-0.134-0.468-0.304-0.772c-0.169-0.304-0.21-0.392-0.484-0.745c-0.273-0.353-1.883-2.398-1.883-2.398
		l-2.798-3.453l-3.649-4.194c0,0-0.676-0.704-0.861-0.884c-0.186-0.18-0.606-0.562-0.987-0.888
		c-0.382-0.325-0.681-0.385-0.709-0.396c-0.028-0.01-0.117,0.005-0.166,0.022S40.561,12.113,40.561,12.113z"/>
	<path fill="#FFFFFF" d="M23.592,22.092c1.538,0,11.088,12.422,11.088,12.422c0.451,0.629,0.626,1.307,0.626,1.307v16.204H23.592
		H11.877V35.82c0,0,0.175-0.678,0.626-1.307C12.503,34.514,22.053,22.092,23.592,22.092z"/>
	<path fill="none" stroke="#231F20" stroke-width="0.732" stroke-miterlimit="10" d="M11.877,52.024V35.82
		c0,0,0.01-0.042,0.039-0.128c0.029-0.087,0.146-0.394,0.196-0.499c0.05-0.106,0.131-0.274,0.215-0.409
		c0.085-0.137,0.22-0.326,0.333-0.473c0.113-0.146,0.488-0.628,0.488-0.628l0.729-0.931l0.814-1.027l4.022-4.9
		c0,0,0.694-0.808,0.968-1.117s1.23-1.364,1.441-1.584s0.599-0.624,0.843-0.856c0.245-0.233,0.67-0.623,0.848-0.757
		c0.179-0.135,0.448-0.308,0.448-0.308l0.658-0.384l16.395-9.563l0.329-0.184c0,0,0.198-0.097,0.285-0.097
		c0.088,0,0.332,0.114,0.332,0.114s0.353,0.218,0.496,0.344c0.144,0.126,0.826,0.751,0.826,0.751l2.634,2.843l2.14,2.441
		l4.252,5.403l0.419,0.549c0,0,0.135,0.156,0.253,0.393c0.117,0.237,0.274,0.623,0.274,0.623l0.088,0.271v16.204L35.306,52.024
		H11.877z"/>
	<path fill="none" stroke="#231F20" stroke-width="0.5229" stroke-miterlimit="10" d="M23.06,22.337c0,0,0.266-0.246,0.532-0.246
		c0.266,0,0.621,0.3,0.776,0.419c0.156,0.119,0.749,0.65,0.949,0.855c0.201,0.205,2.329,2.503,2.687,2.918
		c0.357,0.416,6.127,7.522,6.127,7.522s0.463,0.583,0.588,0.762c0.124,0.18,0.313,0.504,0.412,0.76
		c0.1,0.255,0.175,0.492,0.175,0.492v16.204"/>
</g>
</svg>
