<?xml version="1.0" encoding="utf-8"?>
<!-- Generator: Adobe Illustrator 15.0.0, SVG Export Plug-In . SVG Version: 6.00 Build 0)  -->
<!DOCTYPE svg PUBLIC "-//W3C//DTD SVG 1.1//EN" "http://www.w3.org/Graphics/SVG/1.1/DTD/svg11.dtd">
<svg version="1.1" id="Livello_1" xmlns="http://www.w3.org/2000/svg" xmlns:xlink="http://www.w3.org/1999/xlink" x="0px" y="0px"
	 width="64px" height="64px" viewBox="0 0 64 64" enable-background="new 0 0 64 64" xml:space="preserve">
<path fill="none" stroke="#FF0000" stroke-width="0.7202" stroke-miterlimit="10" d="M32,31.495"/>
<path fill="#FFFFFF" stroke="#FF0000" stroke-width="0.7202" stroke-miterlimit="10" d="M14.52,40.04c0,0-0.475,0-0.789,0.403
	c-0.351,0.451-4.809,5.658-4.809,5.658v7.707h5.632"/>
<path fill="#FFFFFF" stroke="#231F20" stroke-width="0.0514" stroke-miterlimit="10" d="M27.417,44.619h3.515V7.393
	c0,0-0.026-0.193-0.155-0.412c-0.129-0.219-1.996-3.986-3.36-3.986c-1.365,0-3.232,3.768-3.361,3.986s-0.154,0.412-0.154,0.412
	v37.226H27.417z"/>
<path fill="#FFFFFF" stroke="#FF0000" stroke-width="0.7202" stroke-miterlimit="10" d="M24.813,45.732h3.514V8.507
	c0,0-0.025-0.193-0.153-0.411c-0.128-0.219-1.996-3.986-3.36-3.986c-1.365,0-3.232,3.768-3.361,3.986
	C21.325,8.314,21.3,8.507,21.3,8.507v37.226H24.813L24.813,45.732z"/>
<path fill="#FF0000" stroke="#FF0000" stroke-width="0.7202" stroke-miterlimit="10" d="M24.514,4.165l2.536-1.088l0.119-0.042
	l0.117-0.028l0.084-0.011h0.112l0.099,0.018l0.113,0.031l0.1,0.036l0.142,0.07l0.217,0.141l0.174,0.139l0.335,0.322
	c0,0,0.298,0.333,0.419,0.491c0.121,0.158,0.477,0.648,0.635,0.897c0.159,0.25,0.435,0.704,0.513,0.842
	c0.078,0.136,0.396,0.714,0.396,0.714l0.134,0.251l0.055,0.1c0,0,0.007,0.015,0.016,0.033c0.009,0.018,0.031,0.068,0.031,0.068
	l0.027,0.072c0,0,0.02,0.061,0.021,0.065C30.91,7.29,30.92,7.328,30.92,7.328l0.014,0.066V44.62l-2.605,1.112V8.542l-0.004-0.064
	L28.311,8.42l-0.019-0.06c0,0-0.027-0.075-0.029-0.082c-0.003-0.007-0.028-0.067-0.028-0.067l-0.039-0.078l-0.059-0.105
	l-0.188-0.351l-0.187-0.339l-0.345-0.594l-0.33-0.526l-0.334-0.491L26.35,5.199l-0.228-0.263l-0.171-0.18l-0.19-0.18
	c0,0-0.202-0.163-0.219-0.177c-0.018-0.011-0.232-0.147-0.232-0.147l-0.077-0.038l-0.106-0.045l-0.102-0.031l-0.093-0.02
	l-0.118-0.009l-0.131,0.01l-0.075,0.017L24.514,4.165z"/>
<path fill="#D6DE23" d="M42.488,15.367c1.513,0,10.908,12.22,10.908,12.22c0.443,0.619,0.615,1.286,0.615,1.286v15.943H42.488
	H30.964V28.873c0,0,0.171-0.667,0.616-1.286C31.58,27.587,40.977,15.367,42.488,15.367z"/>
<path fill="#FF0000" d="M42.124,15.5l-17.018,9.927c0,0,0.183-0.111,0.325-0.111c0.142,0,0.296,0.093,0.35,0.125
	c0.057,0.034,0.356,0.202,0.777,0.592c0.42,0.39,0.939,0.904,1.054,1.024c0.115,0.119,1.486,1.614,1.486,1.614l1.366,1.577
	l2.271,2.74l2.201,2.75l1.26,1.611c0,0,0.219,0.267,0.342,0.494c0.123,0.229,0.199,0.357,0.281,0.576
	c0.08,0.221,0.137,0.4,0.137,0.4v5.994v9.947l17.057-9.947V28.873c0,0-0.132-0.46-0.299-0.759c-0.167-0.299-0.207-0.385-0.477-0.732
	c-0.269-0.348-1.854-2.36-1.854-2.36l-2.752-3.396l-3.592-4.125c0,0-0.663-0.692-0.846-0.87c-0.184-0.177-0.596-0.553-0.973-0.873
	c-0.373-0.32-0.67-0.379-0.697-0.389c-0.027-0.011-0.115,0.006-0.164,0.021C42.314,15.405,42.124,15.5,42.124,15.5z"/>
<path fill="#FFFFFF" d="M25.431,25.316c1.512,0,10.909,12.22,10.909,12.22c0.443,0.618,0.615,1.286,0.615,1.286v15.941H25.431
	H13.907V38.822c0,0,0.171-0.668,0.615-1.286C14.522,37.536,23.919,25.316,25.431,25.316z"/>
<path fill="none" stroke="#FF0000" stroke-width="0.7202" stroke-miterlimit="10" d="M13.907,54.766V38.822
	c0,0,0.009-0.041,0.037-0.125c0.028-0.086,0.143-0.389,0.192-0.491c0.05-0.104,0.128-0.269,0.212-0.403
	c0.083-0.134,0.216-0.32,0.327-0.464c0.111-0.142,0.48-0.618,0.48-0.618l0.718-0.914l0.8-1.012l3.958-4.82
	c0,0,0.684-0.794,0.952-1.099c0.27-0.305,1.211-1.342,1.418-1.559c0.208-0.217,0.589-0.615,0.829-0.843
	c0.242-0.229,0.66-0.612,0.835-0.744c0.175-0.133,0.441-0.302,0.441-0.302l0.647-0.378l16.129-9.409l0.324-0.181
	c0,0,0.194-0.095,0.28-0.095s0.324,0.113,0.324,0.113s0.349,0.214,0.489,0.338c0.144,0.125,0.813,0.739,0.813,0.739l2.592,2.798
	l2.104,2.4l4.186,5.315l0.41,0.54c0,0,0.133,0.153,0.248,0.386c0.117,0.234,0.271,0.613,0.271,0.613l0.086,0.266v15.943
	l-17.057,9.949H13.907z"/>
<path fill="none" stroke="#FF0000" stroke-width="0.5144" stroke-miterlimit="10" d="M24.907,25.559c0,0,0.262-0.242,0.524-0.242
	c0.261,0,0.61,0.296,0.764,0.413c0.154,0.116,0.737,0.64,0.934,0.841c0.197,0.202,2.291,2.463,2.643,2.871
	c0.352,0.41,6.027,7.4,6.027,7.4s0.456,0.572,0.579,0.75c0.122,0.176,0.308,0.496,0.405,0.746c0.098,0.252,0.172,0.484,0.172,0.484
	v15.941"/>
<polygon fill="#FFFFFF" stroke="#FF0000" stroke-width="0.4654" stroke-miterlimit="10" points="36.955,56.029 28.427,61.005 
	5.008,61.005 13.537,56.029 "/>
<path fill="#FFFFFF" stroke="#FF0000" stroke-width="0.7202" stroke-miterlimit="10" d="M38.379,40.04c0,0,0.479,0,0.79,0.403
	c0.353,0.451,4.812,5.658,4.812,5.658v7.707h-5.633"/>
<path fill="#FFFFFF" stroke="#FF0000" stroke-width="0.7202" stroke-miterlimit="10" d="M53.225,31.522c0,0,0.476,0,0.787,0.403
	c0.354,0.453,4.811,5.66,4.811,5.66l0.171,7.595h-5.634"/>
<path fill="#FFFFFF" stroke="#FF0000" stroke-width="0.7202" stroke-miterlimit="10" d="M45.959,35.879c0,0,0.477,0,0.788,0.402
	c0.353,0.453,4.81,5.658,4.81,5.658l0.17,7.597h-5.631"/>
<polygon fill="#FFFFFF" stroke="#FF0000" stroke-width="0.4654" stroke-miterlimit="10" points="36.955,55.133 28.427,60.107 
	5.008,60.107 13.537,55.133 "/>
<line fill="none" stroke="#FF0000" stroke-width="1.3595" stroke-miterlimit="10" x1="42.488" y1="15.367" x2="42.488" y2="5.821"/>
<line fill="none" stroke="#FF0000" stroke-width="1.3595" stroke-miterlimit="10" x1="39.559" y1="8.923" x2="45.307" y2="8.923"/>
</svg>
