<?xml version="1.0" encoding="utf-8"?>
<!-- Generator: Adobe Illustrator 15.0.0, SVG Export Plug-In . SVG Version: 6.00 Build 0)  -->
<!DOCTYPE svg PUBLIC "-//W3C//DTD SVG 1.1//EN" "http://www.w3.org/Graphics/SVG/1.1/DTD/svg11.dtd">
<svg version="1.1" id="Livello_1" xmlns="http://www.w3.org/2000/svg" xmlns:xlink="http://www.w3.org/1999/xlink" x="0px" y="0px"
	 width="64px" height="64px" viewBox="0 0 64 64" enable-background="new 0 0 64 64" xml:space="preserve">
<g>
	<g>
		<path fill="none" stroke="#231F20" stroke-width="0.7202" stroke-miterlimit="10" d="M32,31.495"/>
		<path fill="#FFFFFF" stroke="#231F20" stroke-width="0.7202" stroke-miterlimit="10" d="M14.52,40.04c0,0-0.475,0-0.789,0.403
			c-0.351,0.452-4.809,5.659-4.809,5.659v7.706h5.632"/>
		<g>
			<path fill="#FFFFFF" stroke="#231F20" stroke-width="0.0514" stroke-miterlimit="10" d="M27.417,44.619h3.515V7.393
				c0,0-0.026-0.193-0.155-0.412s-1.996-3.986-3.36-3.986c-1.365,0-3.232,3.768-3.361,3.986s-0.154,0.412-0.154,0.412v37.226H27.417
				z"/>
			<path fill="#FFFFFF" stroke="#231F20" stroke-width="0.7202" stroke-miterlimit="10" d="M24.813,45.732h3.514V8.507
				c0,0-0.025-0.193-0.153-0.411c-0.128-0.219-1.996-3.986-3.36-3.986c-1.365,0-3.232,3.768-3.361,3.986
				c-0.128,0.218-0.153,0.411-0.153,0.411v37.226H24.813z"/>
			<path fill="#231F20" stroke="#231F20" stroke-width="0.7202" stroke-miterlimit="10" d="M24.514,4.165l2.536-1.088l0.119-0.042
				l0.117-0.028l0.084-0.011h0.112l0.099,0.018l0.113,0.031l0.1,0.036l0.142,0.07l0.217,0.141l0.174,0.139l0.335,0.322
				c0,0,0.298,0.333,0.419,0.491c0.121,0.158,0.477,0.648,0.635,0.897c0.159,0.25,0.435,0.704,0.513,0.842
				c0.078,0.136,0.396,0.714,0.396,0.714l0.134,0.251l0.055,0.1c0,0,0.007,0.015,0.016,0.033s0.031,0.068,0.031,0.068l0.027,0.072
				c0,0,0.02,0.061,0.021,0.065c0.001,0.004,0.011,0.042,0.011,0.042l0.014,0.066v37.226l-2.605,1.113V8.542l-0.004-0.064
				l-0.014-0.058L28.292,8.36c0,0-0.027-0.075-0.029-0.082c-0.003-0.007-0.028-0.067-0.028-0.067l-0.039-0.078l-0.059-0.105
				l-0.188-0.351l-0.187-0.339l-0.345-0.594l-0.33-0.526l-0.334-0.491L26.35,5.199l-0.228-0.263l-0.171-0.18l-0.19-0.18
				c0,0-0.202-0.163-0.219-0.177c-0.018-0.011-0.232-0.147-0.232-0.147l-0.077-0.038l-0.106-0.045l-0.102-0.031l-0.093-0.02
				l-0.118-0.009l-0.131,0.01l-0.075,0.017L24.514,4.165z"/>
		</g>
		<path fill="#D6DE23" d="M42.488,15.367c1.513,0,10.908,12.22,10.908,12.22c0.444,0.619,0.615,1.286,0.615,1.286v15.944H42.488
			H30.964V28.873c0,0,0.171-0.667,0.616-1.286C31.58,27.587,40.976,15.367,42.488,15.367z"/>
		<path fill="#231F20" d="M42.124,15.5l-17.018,9.927c0,0,0.183-0.111,0.325-0.111c0.142,0,0.296,0.093,0.35,0.125
			c0.057,0.034,0.356,0.202,0.777,0.592c0.42,0.39,0.939,0.904,1.054,1.024c0.115,0.119,1.486,1.614,1.486,1.614l1.366,1.577
			l2.271,2.74l2.2,2.751l1.26,1.61c0,0,0.219,0.267,0.342,0.494c0.123,0.229,0.199,0.358,0.281,0.577
			c0.081,0.221,0.137,0.4,0.137,0.4v5.994v9.948l17.057-9.948V28.873c0,0-0.132-0.46-0.299-0.759
			c-0.167-0.299-0.207-0.385-0.476-0.732c-0.269-0.348-1.854-2.36-1.854-2.36l-2.752-3.396l-3.592-4.125c0,0-0.663-0.692-0.846-0.87
			c-0.183-0.177-0.596-0.553-0.972-0.873c-0.374-0.32-0.67-0.379-0.697-0.389c-0.028-0.011-0.116,0.006-0.164,0.021
			C42.315,15.405,42.124,15.5,42.124,15.5z"/>
		<path fill="#FFFFFF" d="M25.431,25.316c1.512,0,10.909,12.22,10.909,12.22c0.443,0.619,0.615,1.286,0.615,1.286v15.942H25.431
			H13.907V38.822c0,0,0.171-0.667,0.615-1.286C14.522,37.536,23.919,25.316,25.431,25.316z"/>
		<path fill="none" stroke="#231F20" stroke-width="0.7202" stroke-miterlimit="10" d="M13.907,54.765V38.822
			c0,0,0.009-0.041,0.037-0.125c0.028-0.086,0.143-0.388,0.192-0.491c0.05-0.104,0.128-0.269,0.212-0.403
			c0.083-0.134,0.216-0.32,0.327-0.464c0.111-0.142,0.48-0.618,0.48-0.618l0.718-0.915l0.8-1.011l3.958-4.82
			c0,0,0.684-0.794,0.952-1.099c0.27-0.305,1.211-1.342,1.418-1.559c0.208-0.217,0.589-0.615,0.829-0.843
			c0.242-0.229,0.66-0.612,0.835-0.744c0.175-0.133,0.441-0.302,0.441-0.302l0.647-0.378l16.129-9.409l0.324-0.181
			c0,0,0.194-0.095,0.28-0.095c0.087,0,0.324,0.113,0.324,0.113s0.349,0.214,0.49,0.338c0.143,0.125,0.813,0.739,0.813,0.739
			l2.592,2.798l2.103,2.4l4.186,5.315l0.411,0.54c0,0,0.132,0.153,0.248,0.386c0.116,0.234,0.271,0.613,0.271,0.613l0.086,0.266
			v15.944l-17.057,9.948H13.907z"/>
		<path fill="none" stroke="#231F20" stroke-width="0.5144" stroke-miterlimit="10" d="M24.907,25.559c0,0,0.262-0.242,0.524-0.242
			c0.261,0,0.61,0.296,0.764,0.413c0.154,0.116,0.737,0.64,0.934,0.841c0.197,0.202,2.291,2.463,2.643,2.871
			c0.352,0.41,6.027,7.4,6.027,7.4s0.456,0.572,0.579,0.75c0.122,0.176,0.307,0.496,0.405,0.746
			c0.098,0.252,0.172,0.484,0.172,0.484v15.942"/>
		<polygon fill="#FFFFFF" stroke="#231F20" stroke-width="0.4654" stroke-miterlimit="10" points="36.955,56.029 28.427,61.005 
			5.008,61.005 13.537,56.029 		"/>
		<path fill="#FFFFFF" stroke="#231F20" stroke-width="0.7202" stroke-miterlimit="10" d="M38.379,40.04c0,0,0.478,0,0.79,0.403
			c0.352,0.452,4.811,5.659,4.811,5.659v7.706h-5.633"/>
		<path fill="#FFFFFF" stroke="#231F20" stroke-width="0.7202" stroke-miterlimit="10" d="M53.224,31.522c0,0,0.476,0,0.788,0.403
			c0.353,0.453,4.811,5.66,4.811,5.66l0.17,7.595H53.36"/>
		<path fill="#FFFFFF" stroke="#231F20" stroke-width="0.7202" stroke-miterlimit="10" d="M45.959,35.879c0,0,0.476,0,0.788,0.402
			c0.353,0.453,4.81,5.658,4.81,5.658l0.17,7.597h-5.632"/>
		<polygon fill="#FFFFFF" stroke="#231F20" stroke-width="0.4654" stroke-miterlimit="10" points="36.955,55.133 28.427,60.108 
			5.008,60.108 13.537,55.133 		"/>
	</g>
	
		<line fill="none" stroke="#231F20" stroke-width="1.3595" stroke-miterlimit="10" x1="42.488" y1="15.367" x2="42.488" y2="5.821"/>
	<line fill="none" stroke="#231F20" stroke-width="1.3595" stroke-miterlimit="10" x1="39.559" y1="8.923" x2="45.306" y2="8.923"/>
</g>
</svg>
