<?xml version="1.0" encoding="utf-8"?>
<!-- Generator: Adobe Illustrator 15.0.0, SVG Export Plug-In . SVG Version: 6.00 Build 0)  -->
<!DOCTYPE svg PUBLIC "-//W3C//DTD SVG 1.1//EN" "http://www.w3.org/Graphics/SVG/1.1/DTD/svg11.dtd">
<svg version="1.1" id="Livello_1" xmlns="http://www.w3.org/2000/svg" xmlns:xlink="http://www.w3.org/1999/xlink" x="0px" y="0px"
	 width="64px" height="64px" viewBox="0 0 64 64" enable-background="new 0 0 64 64" xml:space="preserve">
<path fill="none" stroke="#FFFFFF" stroke-miterlimit="10" d="M154.68,145.025c0,0-5.125-3.5-9.125-5.25s-10.75,0.5-19-3.25
	s-13.5-15.25-13.5-15.25v-87.5h41.625h41.625v87.5c0,0-5.25,11.5-13.5,15.25s-15,1.5-19,3.25S154.68,145.025,154.68,145.025z"/>
<path fill="#FFFFFF" d="M143.394,139.204V96.775h-30.338v-22.75h30.338v-40.25h21.662v40h31.25v22.5h-31v42.929l-0.765,0.303
	l-1.446,0.593l-1.933,0.979l-1.645,0.919l-1.677,1l-1.483,0.928l-1.157,0.752l-0.519,0.348l-1.301-0.859l-1.333-0.845l-1.465-0.891
	l-1.976-1.131l-1.996-1.037l-1.57-0.686C145.038,139.577,143.264,139.191,143.394,139.204z"/>
<path fill="none" stroke="#CCCCCC" stroke-width="0.75" stroke-miterlimit="10" d="M31.994,57.003c0,0-1.574-1.074-2.802-1.612
	c-1.228-0.537-3.3,0.153-5.833-0.998c-2.533-1.151-4.145-4.682-4.145-4.682V22.845h12.781h12.781v26.866
	c0,0-1.612,3.531-4.145,4.682c-2.534,1.151-4.606,0.461-5.834,0.998C33.567,55.929,31.994,57.003,31.994,57.003z"/>
<path fill="#CCCCCC" d="M28.472,55.203l0.048-13.027l-9.314-0.035l0.025-6.985l9.315,0.035l0.046-12.358l6.65,0.024l-0.045,12.281
	l9.595,0.036l-0.025,6.909l-9.518-0.035L35.2,55.228l-0.235,0.092L34.52,55.5l-0.595,0.299l-0.506,0.28l-0.516,0.305l-0.457,0.283
	l-0.356,0.229l-0.159,0.106l-0.399-0.266l-0.408-0.261l-0.449-0.275l-0.605-0.349l-0.612-0.321l-0.481-0.212
	C28.977,55.319,28.432,55.199,28.472,55.203z"/>
<path fill="none" stroke="#CCCCCC" stroke-width="0.75" stroke-miterlimit="10" d="M19.56,20.842h10.348v-3.478
	c0,0,0.391-1.696,2.304-1.696s2.087,1.652,2.087,1.652v3.521h10.174"/>
<polyline fill="none" stroke="#CCCCCC" stroke-width="0.75" stroke-miterlimit="10" points="28.211,18.255 19.995,18.255 
	19.995,14.451 18.559,13.016 18.559,9.972 "/>
<polyline fill="none" stroke="#CCCCCC" stroke-width="0.75" stroke-miterlimit="10" points="35.777,18.255 43.994,18.255 
	43.994,14.451 45.429,13.016 45.429,9.972 "/>
<line fill="none" stroke="#CCCCCC" stroke-width="0.75" stroke-miterlimit="10" x1="21.081" y1="9.972" x2="21.081" y2="12.408"/>
<line fill="none" stroke="#CCCCCC" stroke-width="0.75" stroke-miterlimit="10" x1="42.951" y1="9.972" x2="42.951" y2="12.408"/>
<polyline fill="none" stroke="#CCCCCC" stroke-width="0.75" stroke-miterlimit="10" points="23.386,8.538 23.386,11.19 
	24.994,12.799 24.994,16.581 "/>
<polyline fill="none" stroke="#CCCCCC" stroke-width="0.75" stroke-miterlimit="10" points="40.958,8.538 40.958,11.19 
	39.349,12.799 39.349,16.581 "/>
<polyline fill="none" stroke="#CCCCCC" stroke-width="0.75" stroke-miterlimit="10" points="25.603,8.538 25.603,10.538 
	26.864,10.538 "/>
<polyline fill="none" stroke="#CCCCCC" stroke-width="0.75" stroke-miterlimit="10" points="38.661,8.538 38.661,10.538 
	37.4,10.538 "/>
<polyline fill="none" stroke="#CCCCCC" stroke-width="0.75" stroke-miterlimit="10" points="28.777,7.277 28.777,9.711 
	30.494,11.429 30.494,14.407 "/>
<polyline fill="none" stroke="#CCCCCC" stroke-width="0.75" stroke-miterlimit="10" points="35.777,7.277 35.777,9.711 
	34.06,11.429 34.06,14.407 "/>
<polyline fill="none" stroke="#CCCCCC" stroke-width="0.75" stroke-miterlimit="10" points="30.893,7.277 30.893,9.538 
	33.269,9.538 33.269,7.277 "/>
</svg>
