<?xml version="1.0" encoding="utf-8"?>
<!-- Generator: Adobe Illustrator 15.0.0, SVG Export Plug-In . SVG Version: 6.00 Build 0)  -->
<!DOCTYPE svg PUBLIC "-//W3C//DTD SVG 1.1//EN" "http://www.w3.org/Graphics/SVG/1.1/DTD/svg11.dtd">
<svg version="1.1" id="Livello_1" xmlns="http://www.w3.org/2000/svg" xmlns:xlink="http://www.w3.org/1999/xlink" x="0px" y="0px"
	 width="64px" height="64px" viewBox="0 0 64 64" enable-background="new 0 0 64 64" xml:space="preserve">
<circle fill="#414042" cx="5.213" cy="5.448" r="1.335"/>
<circle fill="#414042" cx="15.875" cy="5.448" r="1.335"/>
<circle fill="#414042" cx="26.536" cy="5.448" r="1.335"/>
<circle fill="#414042" cx="37.197" cy="5.448" r="1.335"/>
<circle fill="#414042" cx="47.859" cy="5.448" r="1.335"/>
<circle fill="#414042" cx="58.52" cy="5.448" r="1.335"/>
<circle fill="#414042" cx="5.213" cy="16.109" r="1.335"/>
<circle fill="#414042" cx="26.536" cy="16.109" r="1.335"/>
<circle fill="#414042" cx="15.875" cy="16.109" r="1.335"/>
<circle fill="#414042" cx="37.197" cy="16.109" r="1.335"/>
<circle fill="#414042" cx="47.859" cy="16.109" r="1.335"/>
<circle fill="#414042" cx="58.521" cy="16.109" r="1.335"/>
<circle fill="#414042" cx="5.213" cy="26.77" r="1.335"/>
<circle fill="#414042" cx="15.875" cy="26.77" r="1.335"/>
<circle fill="#414042" cx="26.536" cy="26.77" r="1.335"/>
<circle fill="#414042" cx="37.197" cy="26.77" r="1.335"/>
<circle fill="#414042" cx="47.859" cy="26.77" r="1.335"/>
<circle fill="#414042" cx="58.521" cy="26.77" r="1.335"/>
<circle fill="#414042" cx="5.213" cy="37.389" r="1.335"/>
<circle fill="#414042" cx="15.875" cy="37.389" r="1.335"/>
<circle fill="#414042" cx="26.536" cy="37.389" r="1.335"/>
<circle fill="#414042" cx="47.859" cy="37.389" r="1.335"/>
<circle fill="#414042" cx="58.521" cy="37.389" r="1.335"/>
<circle fill="#414042" cx="5.213" cy="48.029" r="1.335"/>
<circle fill="#414042" cx="15.875" cy="48.029" r="1.335"/>
<circle fill="#414042" cx="37.197" cy="48.029" r="1.335"/>
<circle fill="#414042" cx="26.536" cy="48.029" r="1.335"/>
<circle fill="#414042" cx="47.859" cy="48.029" r="1.335"/>
<circle fill="#414042" cx="58.521" cy="48.029" r="1.335"/>
<circle fill="#414042" cx="5.213" cy="58.67" r="1.335"/>
<circle fill="#414042" cx="15.875" cy="58.67" r="1.335"/>
<circle fill="#414042" cx="26.536" cy="58.67" r="1.335"/>
<circle fill="#414042" cx="37.197" cy="58.67" r="1.335"/>
<circle fill="#414042" cx="47.859" cy="58.67" r="1.335"/>
<circle fill="#414042" cx="58.521" cy="58.67" r="1.335"/>
<path fill="none" stroke="#333333" stroke-width="2.5147" stroke-miterlimit="10" d="M11.25,44.967c0,0,0.943-18.075,5.658-18.075
	c4.715,0,19.332,0.577,21.847-0.838c2.515-1.414,10.845-7.02,10.845-7.02"/>
<polyline fill="none" stroke="#333333" stroke-width="2.5147" stroke-miterlimit="10" points="54,26.185 51.014,26.185 
	39.462,36.951 39.462,44.967 "/>
<line fill="none" stroke="#333333" stroke-width="0.9389" stroke-miterlimit="10" x1="53.666" y1="25.34" x2="49.6" y2="21.784"/>
<line fill="none" stroke="#333333" stroke-width="0.9389" stroke-miterlimit="10" x1="34" y1="44.967" x2="34" y2="36.313"/>
<path fill="none" stroke="#333333" stroke-width="0.9389" stroke-miterlimit="10" d="M16.94,44.967c0,0,1.125-14.654,2.813-14.654"
	/>
<line fill="none" stroke="#333333" stroke-width="2" stroke-miterlimit="10" x1="15.375" y1="26.875" x2="11.406" y2="22.906"/>
</svg>
