<?xml version="1.0" encoding="utf-8"?>
<!-- Generator: Adobe Illustrator 15.0.0, SVG Export Plug-In . SVG Version: 6.00 Build 0)  -->
<!DOCTYPE svg PUBLIC "-//W3C//DTD SVG 1.1//EN" "http://www.w3.org/Graphics/SVG/1.1/DTD/svg11.dtd">
<svg version="1.1" id="Livello_1" xmlns="http://www.w3.org/2000/svg" xmlns:xlink="http://www.w3.org/1999/xlink" x="0px" y="0px"
	 width="64px" height="64px" viewBox="0 0 64 64" enable-background="new 0 0 64 64" xml:space="preserve">
<polygon fill="#FFFFFF" stroke="#231F20" stroke-width="0.0707" stroke-miterlimit="10" points="25.673,42.344 25.97,40.425 
	32.279,38.507 38.292,38.507 37.994,40.425 31.686,42.344 "/>
<polygon fill="#231F20" stroke="#FFFFFF" stroke-width="0.0244" stroke-miterlimit="10" points="29.804,52.188 29.906,51.525 
	32.084,50.863 34.161,50.863 34.059,51.525 31.879,52.188 "/>
<polygon fill="#231F20" stroke="#FFFFFF" stroke-width="0.0077" stroke-miterlimit="10" points="31.292,62.41 31.325,62.201 
	32.015,61.991 32.672,61.991 32.64,62.201 31.949,62.41 "/>
<polygon fill="#231F20" stroke="#231F20" stroke-width="0.7717" stroke-miterlimit="10" points="29.804,52.188 31.879,52.188 
	34.059,51.525 34.161,50.863 32.672,61.991 32.64,62.201 31.949,62.41 31.292,62.41 "/>
<polygon fill="#FFFFFF" stroke="#231F20" stroke-width="0.7717" stroke-miterlimit="10" points="29.804,52.188 25.673,42.344 
	31.686,42.344 31.879,52.188 "/>
<polygon fill="#FFFFFF" stroke="#231F20" stroke-width="0.7717" stroke-miterlimit="10" points="31.879,52.188 31.686,42.344 
	37.994,40.425 34.059,51.525 "/>
<polygon fill="#FFFFFF" stroke="#231F20" stroke-width="0.7717" stroke-miterlimit="10" points="25.708,5.426 26.006,3.508 
	32.314,1.589 38.327,1.589 38.03,3.508 31.721,5.426 "/>
<polygon fill="#FFFFFF" stroke="#231F20" stroke-width="0.0707" stroke-miterlimit="10" points="25.708,42.319 26.006,40.4 
	32.314,38.482 38.327,38.482 38.03,40.4 31.721,42.319 "/>
<polygon fill="#231F20" stroke="#FFFFFF" stroke-width="0.0244" stroke-miterlimit="10" points="29.839,4.17 29.941,3.508 
	32.121,2.845 34.196,2.845 34.095,3.508 31.916,4.17 "/>
<rect x="25.708" y="5.426" fill="#231F20" stroke="#231F20" stroke-width="0.7717" stroke-miterlimit="10" width="6.013" height="36.893"/>
<polygon fill="#FFFFFF" stroke="#231F20" stroke-width="0.7717" stroke-miterlimit="10" points="31.721,5.426 38.03,3.508 
	38.03,40.4 31.721,42.319 "/>
<polygon fill="#231F20" stroke="#231F20" stroke-width="0.7717" stroke-miterlimit="10" points="38.03,40.4 38.327,38.482 
	38.327,1.589 38.03,3.508 "/>
</svg>
