<?xml version="1.0" encoding="utf-8"?>
<!-- Generator: Adobe Illustrator 15.0.0, SVG Export Plug-In . SVG Version: 6.00 Build 0)  -->
<!DOCTYPE svg PUBLIC "-//W3C//DTD SVG 1.1//EN" "http://www.w3.org/Graphics/SVG/1.1/DTD/svg11.dtd">
<svg version="1.1" id="Livello_1" xmlns="http://www.w3.org/2000/svg" xmlns:xlink="http://www.w3.org/1999/xlink" x="0px" y="0px"
	 width="64px" height="64px" viewBox="0 0 64 64" enable-background="new 0 0 64 64" xml:space="preserve">
<polyline fill="none" stroke="#333333" stroke-miterlimit="10" points="0,7.995 8,0 16,7.995 24,0 32,7.995 40,0 48,7.995 56,0 
	64,7.995 "/>
<polyline fill="none" stroke="#333333" stroke-miterlimit="10" points="0,15.99 8,7.995 16,15.99 24,7.995 32,15.99 40,7.995 
	48,15.99 56,7.995 64,15.99 "/>
<polyline fill="none" stroke="#333333" stroke-miterlimit="10" points="0,23.985 8,15.99 16,23.985 24,15.99 32,23.985 40,15.99 
	48,23.985 56,15.99 64,23.985 "/>
<polyline fill="none" stroke="#333333" stroke-miterlimit="10" points="0,31.98 8,23.985 16,31.98 24,23.985 32,31.98 40,23.985 
	48,31.98 56,23.985 64,31.98 "/>
<polyline fill="none" stroke="#333333" stroke-miterlimit="10" points="0,39.976 8,31.981 16,39.976 24,31.981 32,39.976 40,31.981 
	48,39.976 56,31.981 64,39.976 "/>
<polyline fill="none" stroke="#333333" stroke-miterlimit="10" points="0,47.972 8,39.977 16,47.972 24,39.977 32,47.972 40,39.977 
	48,47.972 56,39.977 64,47.972 "/>
<polyline fill="none" stroke="#333333" stroke-miterlimit="10" points="0,55.967 8,47.973 16,55.967 24,47.973 32,55.967 40,47.973 
	48,55.967 56,47.973 64,55.967 "/>
<polyline fill="none" stroke="#333333" stroke-miterlimit="10" points="0,63.963 8,55.968 16,63.963 24,55.968 32,63.963 40,55.968 
	48,63.963 56,55.968 64,63.963 "/>
</svg>
