<?xml version="1.0" encoding="utf-8"?>
<!-- Generator: Adobe Illustrator 15.0.0, SVG Export Plug-In . SVG Version: 6.00 Build 0)  -->
<!DOCTYPE svg PUBLIC "-//W3C//DTD SVG 1.1//EN" "http://www.w3.org/Graphics/SVG/1.1/DTD/svg11.dtd">
<svg version="1.1" id="Livello_1" xmlns="http://www.w3.org/2000/svg" xmlns:xlink="http://www.w3.org/1999/xlink" x="0px" y="0px"
	 width="64px" height="64px" viewBox="0 0 64 64" enable-background="new 0 0 64 64" xml:space="preserve">
<circle fill="#414042" cx="5.213" cy="5.448" r="1.335"/>
<circle fill="#414042" cx="15.875" cy="5.448" r="1.335"/>
<circle fill="#414042" cx="26.536" cy="5.448" r="1.335"/>
<circle fill="#414042" cx="37.197" cy="5.448" r="1.335"/>
<circle fill="#414042" cx="47.859" cy="5.448" r="1.335"/>
<circle fill="#414042" cx="58.521" cy="5.448" r="1.335"/>
<circle fill="#414042" cx="5.213" cy="16.109" r="1.335"/>
<path fill="#414042" d="M15.875,12.181c2.167,0,3.931,1.759,3.931,3.928s-1.765,3.928-3.931,3.928c-2.172,0-3.931-1.759-3.931-3.928
	S13.702,12.181,15.875,12.181z"/>
<path fill="#414042" d="M37.197,33.461c2.166,0,3.932,1.758,3.932,3.928s-1.766,3.928-3.932,3.928c-2.172,0-3.932-1.758-3.932-3.928
	S35.025,33.461,37.197,33.461z"/>
<path fill="#414042" d="M26.536,44.102c2.166,0,3.932,1.758,3.932,3.928s-1.766,3.928-3.932,3.928c-2.172,0-3.932-1.758-3.932-3.928
	S24.364,44.102,26.536,44.102z"/>
<path fill="#414042" d="M58.52,1.52c2.166,0,3.932,1.758,3.932,3.928s-1.766,3.928-3.932,3.928c-2.172,0-3.932-1.758-3.932-3.928
	S56.348,1.52,58.52,1.52z"/>
<circle fill="#414042" cx="26.536" cy="16.109" r="1.335"/>
<circle fill="#414042" cx="37.197" cy="16.109" r="1.335"/>
<circle fill="#414042" cx="47.859" cy="16.109" r="1.335"/>
<circle fill="#414042" cx="58.521" cy="16.109" r="1.335"/>
<circle fill="#414042" cx="5.213" cy="26.77" r="1.335"/>
<circle fill="#414042" cx="15.875" cy="26.77" r="1.335"/>
<circle fill="#414042" cx="26.536" cy="26.77" r="1.335"/>
<circle fill="#414042" cx="37.197" cy="26.77" r="1.335"/>
<circle fill="#414042" cx="47.859" cy="26.77" r="1.335"/>
<circle fill="#414042" cx="58.521" cy="26.77" r="1.335"/>
<circle fill="#414042" cx="5.213" cy="37.389" r="1.335"/>
<circle fill="#414042" cx="15.875" cy="37.389" r="1.335"/>
<circle fill="#414042" cx="26.536" cy="37.389" r="1.335"/>
<circle fill="#414042" cx="37.197" cy="37.389" r="1.335"/>
<circle fill="#414042" cx="47.859" cy="37.389" r="1.335"/>
<circle fill="#414042" cx="58.521" cy="37.389" r="1.335"/>
<circle fill="#414042" cx="5.213" cy="48.029" r="1.335"/>
<circle fill="#414042" cx="15.875" cy="48.029" r="1.335"/>
<circle fill="#414042" cx="26.536" cy="48.029" r="1.335"/>
<circle fill="#414042" cx="37.197" cy="48.029" r="1.335"/>
<circle fill="#414042" cx="47.859" cy="48.029" r="1.335"/>
<circle fill="#414042" cx="58.521" cy="48.029" r="1.335"/>
<circle fill="#414042" cx="5.213" cy="58.67" r="1.335"/>
<circle fill="#414042" cx="15.875" cy="58.67" r="1.335"/>
<circle fill="#414042" cx="26.536" cy="58.67" r="1.335"/>
<circle fill="#414042" cx="37.197" cy="58.67" r="1.335"/>
<circle fill="#414042" cx="47.859" cy="58.67" r="1.335"/>
<circle fill="#414042" cx="58.521" cy="58.67" r="1.335"/>
<rect x="15.207" y="20.037" fill="#414042" width="1.335" height="3.713"/>
<rect x="36.529" y="41.316" fill="#414042" width="1.336" height="3.713"/>
<rect x="25.868" y="51.957" fill="#414042" width="1.336" height="3.713"/>
<rect x="57.852" y="9.376" fill="#414042" width="1.336" height="3.713"/>
</svg>
