<?xml version="1.0" encoding="utf-8"?>
<!-- Generator: Adobe Illustrator 15.0.0, SVG Export Plug-In . SVG Version: 6.00 Build 0)  -->
<!DOCTYPE svg PUBLIC "-//W3C//DTD SVG 1.1//EN" "http://www.w3.org/Graphics/SVG/1.1/DTD/svg11.dtd">
<svg version="1.1" id="Livello_1" xmlns="http://www.w3.org/2000/svg" xmlns:xlink="http://www.w3.org/1999/xlink" x="0px" y="0px"
	 width="64px" height="64px" viewBox="0 0 64 64" enable-background="new 0 0 64 64" xml:space="preserve">
<circle fill="#414042" cx="5.213" cy="5.448" r="1.335"/>
<circle fill="#414042" cx="15.875" cy="5.448" r="1.335"/>
<circle fill="#414042" cx="26.536" cy="5.448" r="1.335"/>
<circle fill="#414042" cx="37.197" cy="5.448" r="1.335"/>
<circle fill="#414042" cx="47.859" cy="5.448" r="1.335"/>
<circle fill="#414042" cx="58.521" cy="5.448" r="1.335"/>
<circle fill="#414042" cx="5.213" cy="16.109" r="1.335"/>
<circle fill="#414042" cx="15.875" cy="16.109" r="1.335"/>
<circle fill="#414042" cx="26.536" cy="16.109" r="1.335"/>
<circle fill="#414042" cx="37.197" cy="16.109" r="1.335"/>
<circle fill="#414042" cx="47.859" cy="16.109" r="1.335"/>
<circle fill="#414042" cx="58.521" cy="16.109" r="1.335"/>
<circle fill="#414042" cx="5.213" cy="26.77" r="1.335"/>
<circle fill="#414042" cx="15.875" cy="26.77" r="1.335"/>
<circle fill="#414042" cx="26.536" cy="26.77" r="1.335"/>
<circle fill="#414042" cx="37.197" cy="26.77" r="1.335"/>
<circle fill="#414042" cx="47.859" cy="26.77" r="1.335"/>
<circle fill="#414042" cx="58.521" cy="26.77" r="1.335"/>
<circle fill="#414042" cx="5.213" cy="37.389" r="1.335"/>
<circle fill="#414042" cx="15.875" cy="37.389" r="1.335"/>
<circle fill="#414042" cx="26.536" cy="37.389" r="1.335"/>
<circle fill="#414042" cx="37.197" cy="37.389" r="1.335"/>
<circle fill="#414042" cx="47.859" cy="37.389" r="1.335"/>
<circle fill="#414042" cx="58.521" cy="37.389" r="1.335"/>
<circle fill="#414042" cx="5.213" cy="48.029" r="1.335"/>
<circle fill="#414042" cx="15.875" cy="48.029" r="1.335"/>
<circle fill="#414042" cx="26.536" cy="48.029" r="1.335"/>
<circle fill="#414042" cx="37.197" cy="48.029" r="1.335"/>
<circle fill="#414042" cx="47.859" cy="48.029" r="1.335"/>
<circle fill="#414042" cx="58.521" cy="48.029" r="1.335"/>
<circle fill="#414042" cx="5.213" cy="58.67" r="1.335"/>
<circle fill="#414042" cx="15.875" cy="58.67" r="1.335"/>
<circle fill="#414042" cx="26.536" cy="58.67" r="1.335"/>
<circle fill="#414042" cx="37.197" cy="58.67" r="1.335"/>
<circle fill="#414042" cx="47.859" cy="58.67" r="1.335"/>
<circle fill="#414042" cx="58.521" cy="58.67" r="1.335"/>
</svg>
