<?xml version="1.0" encoding="utf-8"?>
<!-- Generator: Adobe Illustrator 15.0.0, SVG Export Plug-In . SVG Version: 6.00 Build 0)  -->
<!DOCTYPE svg PUBLIC "-//W3C//DTD SVG 1.1//EN" "http://www.w3.org/Graphics/SVG/1.1/DTD/svg11.dtd">
<svg version="1.1" id="Layer_2" xmlns="http://www.w3.org/2000/svg" xmlns:xlink="http://www.w3.org/1999/xlink" x="0px" y="0px"
	 width="64px" height="64px" viewBox="0 0 64 64" enable-background="new 0 0 64 64" xml:space="preserve">
<path stroke="#000000" stroke-width="0.4447" stroke-miterlimit="10" d="M7.471,9.906c0,0-0.487,0.029-0.659-0.2
	c-0.171-0.229-0.336-0.57-0.093-0.705c0.244-0.137,1.529-0.457,1.536-0.122c0,0,0.177-0.258,0.262-0.516
	c0.085-0.258,0.117-0.397,0.117-0.397C8.52,8.359,6.329,8.4,6.244,8.85C6.158,9.3,6.355,9.571,6.669,10.024s0.181,0.642,0.181,0.642
	"/>
<g>
	<path d="M14.221,16.407H7.112v-0.482c0-0.146,0.095-0.265,0.221-0.358c-0.454-0.533-1.467-1.852-1.467-3.016
		c0-1.469,1.817-3.352,1.895-3.431c0.008-0.008,0.903-0.962,0.603-1.994C8.06,6.081,6.862,5.657,6.85,5.652L6.682,5.594l0-0.669
		h7.973v0.669l-0.169,0.058c-0.012,0.004-1.21,0.43-1.515,1.475c-0.302,1.037,0.594,1.985,0.603,1.995
		c0.076,0.078,1.894,1.96,1.894,3.43c0,1.164-1.013,2.483-1.467,3.016c0.126,0.093,0.221,0.212,0.221,0.358V16.407z M7.735,15.907
		h5.862c-0.031-0.016-0.062-0.031-0.088-0.042l-0.333-0.14l0.249-0.262c0.016-0.017,1.542-1.643,1.542-2.911
		c0-1.266-1.735-3.064-1.753-3.082c-0.046-0.048-1.105-1.17-0.724-2.482c0.234-0.804,0.86-1.298,1.315-1.563H7.53
		c0.456,0.264,1.08,0.758,1.314,1.563C9.225,8.299,8.166,9.421,8.12,9.468c-0.019,0.019-1.754,1.817-1.754,3.083
		c0,1.268,1.527,2.894,1.542,2.911l0.248,0.262l-0.332,0.141C7.795,15.876,7.765,15.891,7.735,15.907z"/>
</g>
<path stroke="#000000" stroke-width="0.4447" stroke-miterlimit="10" d="M13.862,9.906c0,0,0.487,0.029,0.659-0.2
	s0.337-0.57,0.093-0.705c-0.243-0.137-1.528-0.457-1.535-0.122c0,0-0.178-0.258-0.262-0.516C12.731,8.105,12.7,7.966,12.7,7.966
	c0.114,0.393,2.305,0.435,2.391,0.884c0.086,0.45-0.113,0.721-0.426,1.174c-0.314,0.453-0.182,0.642-0.182,0.642"/>
<path stroke="#000000" stroke-width="0.4447" stroke-miterlimit="10" d="M28.805,9.906c0,0-0.487,0.029-0.659-0.2
	c-0.171-0.229-0.336-0.57-0.093-0.705c0.244-0.137,1.529-0.457,1.536-0.122c0,0,0.177-0.258,0.262-0.516
	c0.085-0.258,0.117-0.397,0.117-0.397c-0.114,0.393-2.305,0.434-2.39,0.884c-0.086,0.45,0.111,0.721,0.425,1.174
	s0.181,0.642,0.181,0.642"/>
<g>
	<path d="M35.555,16.407h-7.109v-0.482c0-0.146,0.095-0.265,0.221-0.358c-0.454-0.533-1.467-1.852-1.467-3.016
		c0-1.469,1.817-3.352,1.895-3.431c0.008-0.008,0.903-0.962,0.603-1.994c-0.304-1.046-1.501-1.47-1.514-1.475l-0.168-0.058l0-0.669
		h7.973v0.669l-0.17,0.058c-0.012,0.004-1.21,0.43-1.514,1.475c-0.303,1.037,0.594,1.985,0.603,1.995
		c0.076,0.078,1.894,1.96,1.894,3.43c0,1.164-1.014,2.483-1.467,3.016c0.126,0.093,0.221,0.212,0.221,0.358V16.407z M29.069,15.907
		h5.862c-0.031-0.016-0.062-0.031-0.088-0.042l-0.334-0.14l0.248-0.262c0.016-0.017,1.543-1.643,1.543-2.911
		c0-1.266-1.735-3.064-1.753-3.082c-0.046-0.048-1.104-1.17-0.724-2.482c0.234-0.804,0.859-1.298,1.314-1.563h-6.274
		c0.456,0.264,1.08,0.758,1.314,1.563c0.381,1.312-0.679,2.434-0.724,2.481c-0.019,0.019-1.754,1.817-1.754,3.083
		c0,1.268,1.527,2.894,1.542,2.911l0.248,0.262l-0.332,0.141C29.129,15.876,29.099,15.891,29.069,15.907z"/>
</g>
<path stroke="#000000" stroke-width="0.4447" stroke-miterlimit="10" d="M35.195,9.906c0,0,0.488,0.029,0.66-0.2
	s0.336-0.57,0.092-0.705c-0.242-0.137-1.527-0.457-1.534-0.122c0,0-0.179-0.258-0.263-0.516c-0.086-0.258-0.116-0.397-0.116-0.397
	c0.114,0.393,2.305,0.435,2.391,0.884c0.087,0.45-0.112,0.721-0.426,1.174s-0.183,0.642-0.183,0.642"/>
<path stroke="#000000" stroke-width="0.4447" stroke-miterlimit="10" d="M50.139,9.906c0,0-0.486,0.029-0.658-0.2
	s-0.336-0.57-0.094-0.705c0.244-0.137,1.529-0.457,1.536-0.122c0,0,0.177-0.258,0.263-0.516c0.084-0.258,0.116-0.397,0.116-0.397
	c-0.114,0.393-2.305,0.434-2.39,0.884c-0.086,0.45,0.111,0.721,0.425,1.174s0.181,0.642,0.181,0.642"/>
<g>
	<path d="M56.889,16.407h-7.109v-0.482c0-0.146,0.096-0.265,0.222-0.358c-0.454-0.533-1.467-1.852-1.467-3.016
		c0-1.469,1.817-3.352,1.895-3.431c0.008-0.008,0.903-0.962,0.603-1.994c-0.303-1.046-1.501-1.47-1.514-1.475L49.35,5.594V4.925
		h7.973v0.669l-0.17,0.058c-0.012,0.004-1.21,0.43-1.514,1.475c-0.303,1.037,0.594,1.985,0.603,1.995
		c0.076,0.078,1.894,1.96,1.894,3.43c0,1.164-1.014,2.483-1.467,3.016c0.126,0.093,0.221,0.212,0.221,0.358V16.407z M50.403,15.907
		h5.862c-0.031-0.016-0.062-0.031-0.088-0.042l-0.334-0.14l0.248-0.262c0.016-0.017,1.543-1.643,1.543-2.911
		c0-1.266-1.735-3.064-1.753-3.082c-0.046-0.048-1.104-1.17-0.724-2.482c0.234-0.804,0.859-1.298,1.314-1.563h-6.274
		c0.456,0.264,1.08,0.758,1.313,1.563c0.381,1.312-0.678,2.434-0.724,2.481c-0.019,0.019-1.754,1.817-1.754,3.083
		c0,1.268,1.526,2.894,1.542,2.911l0.248,0.262l-0.332,0.141C50.463,15.876,50.433,15.891,50.403,15.907z"/>
</g>
<path stroke="#000000" stroke-width="0.4447" stroke-miterlimit="10" d="M56.529,9.906c0,0,0.488,0.029,0.66-0.2
	s0.336-0.57,0.092-0.705c-0.242-0.137-1.527-0.457-1.534-0.122c0,0-0.179-0.258-0.263-0.516c-0.086-0.258-0.116-0.397-0.116-0.397
	c0.114,0.393,2.305,0.435,2.391,0.884c0.087,0.45-0.112,0.721-0.426,1.174s-0.183,0.642-0.183,0.642"/>
<path fill="#F2F2F2" stroke="#F2F2F2" stroke-width="0.4447" stroke-miterlimit="10" d="M18.138,31.238c0,0-0.487,0.029-0.659-0.2
	c-0.171-0.229-0.336-0.57-0.093-0.705c0.244-0.137,1.529-0.457,1.536-0.122c0,0,0.177-0.258,0.262-0.516
	c0.085-0.258,0.117-0.397,0.117-0.397c-0.114,0.393-2.305,0.435-2.391,0.884c-0.085,0.45,0.112,0.721,0.425,1.174
	s0.181,0.642,0.181,0.642"/>
<path fill="#F2F2F2" stroke="#F2F2F2" stroke-width="0.4447" stroke-miterlimit="10" d="M39.473,31.238c0,0-0.488,0.029-0.66-0.2
	c-0.17-0.229-0.336-0.57-0.092-0.705c0.243-0.137,1.527-0.457,1.535-0.122c0,0,0.178-0.258,0.262-0.516
	c0.086-0.258,0.117-0.397,0.117-0.397c-0.113,0.393-2.305,0.435-2.391,0.884c-0.085,0.45,0.111,0.721,0.426,1.174
	s0.182,0.642,0.182,0.642"/>
<path fill="#F2F2F2" stroke="#F2F2F2" stroke-width="0.4447" stroke-miterlimit="10" d="M45.863,31.238c0,0,0.486,0.029,0.658-0.2
	s0.338-0.57,0.094-0.705c-0.243-0.137-1.528-0.457-1.535-0.122c0,0-0.178-0.258-0.262-0.516c-0.086-0.258-0.117-0.397-0.117-0.397
	c0.113,0.393,2.305,0.435,2.391,0.884c0.086,0.45-0.113,0.721-0.426,1.174c-0.314,0.453-0.182,0.642-0.182,0.642"/>
<path fill="#F2F2F2" stroke="#F2F2F2" stroke-width="0.4447" stroke-miterlimit="10" d="M60.805,31.238c0,0-0.488,0.029-0.66-0.2
	c-0.17-0.229-0.336-0.57-0.092-0.705c0.243-0.137,1.527-0.457,1.535-0.122c0,0,0.178-0.258,0.262-0.516
	c0.086-0.258,0.117-0.397,0.117-0.397c-0.113,0.393-2.305,0.435-2.391,0.884c-0.085,0.45,0.111,0.721,0.426,1.174
	s0.182,0.642,0.182,0.642"/>
<path fill="#F2F2F2" stroke="#F2F2F2" stroke-width="0.4447" stroke-miterlimit="10" d="M67.195,31.238c0,0,0.486,0.029,0.658-0.2
	s0.338-0.57,0.094-0.705c-0.243-0.137-1.528-0.457-1.535-0.122c0,0-0.178-0.258-0.262-0.516c-0.086-0.258-0.117-0.397-0.117-0.397
	c0.113,0.393,2.305,0.435,2.391,0.884c0.086,0.45-0.113,0.721-0.426,1.174c-0.314,0.453-0.182,0.642-0.182,0.642"/>
<path fill="#F2F2F2" stroke="#F2F2F2" stroke-width="0.4447" stroke-miterlimit="10" d="M-3.196,31.238c0,0-0.487,0.029-0.659-0.2
	c-0.171-0.229-0.336-0.57-0.093-0.705c0.244-0.137,1.529-0.457,1.536-0.122c0,0,0.177-0.258,0.262-0.516
	c0.085-0.258,0.117-0.397,0.117-0.397c-0.114,0.393-2.305,0.435-2.391,0.884c-0.085,0.45,0.112,0.721,0.425,1.174
	s0.181,0.642,0.181,0.642"/>
<path fill="#F2F2F2" stroke="#F2F2F2" stroke-width="0.4447" stroke-miterlimit="10" d="M3.196,31.238c0,0,0.487,0.029,0.659-0.2
	s0.337-0.57,0.093-0.705c-0.243-0.137-1.528-0.457-1.535-0.122c0,0-0.178-0.258-0.262-0.516c-0.086-0.258-0.117-0.397-0.117-0.397
	c0.114,0.393,2.305,0.435,2.391,0.884c0.086,0.45-0.113,0.721-0.426,1.174c-0.314,0.453-0.182,0.642-0.182,0.642"/>
<path fill="#F2F2F2" d="M0,25.058h-3.736v0.305c0,0,1.328,0.572,1.673,2.074s-0.664,2.829-0.664,2.829s-1.824,2.366-1.824,4.116
	s1.611,3.897,1.611,3.897s-0.365,0.191-0.365,0.365s0,0.295,0,0.295H0"/>
<path fill="#F2F2F2" d="M-3.196,31.038c0,0-0.487,0.037-0.659-0.253c-0.171-0.29-0.336-0.72-0.093-0.891
	c0.244-0.172,1.529-0.577,1.536-0.154c0,0,0.177-0.326,0.262-0.652c0.085-0.326,0.117-0.502,0.117-0.502
	c-0.114,0.497-2.305,0.549-2.391,1.118c-0.085,0.569,0.112,0.911,0.425,1.484s0.181,0.811,0.181,0.811"/>
<path fill="#F2F2F2" stroke="#F2F2F2" stroke-width="0.4447" stroke-miterlimit="10" d="M28.804,53.525c0,0-0.487,0.029-0.659-0.199
	c-0.171-0.229-0.336-0.569-0.093-0.705c0.244-0.137,1.529-0.456,1.536-0.122c0,0,0.177-0.259,0.262-0.517s0.117-0.396,0.117-0.396
	c-0.114,0.395-2.305,0.436-2.391,0.885c-0.085,0.45,0.112,0.721,0.425,1.174s0.181,0.643,0.181,0.643"/>
<path fill="#F2F2F2" stroke="#F2F2F2" stroke-width="0.4447" stroke-miterlimit="10" d="M35.195,53.525c0,0,0.486,0.029,0.658-0.199
	s0.338-0.569,0.094-0.705c-0.243-0.137-1.528-0.456-1.535-0.122c0,0-0.178-0.259-0.262-0.517c-0.086-0.258-0.117-0.396-0.117-0.396
	c0.113,0.395,2.305,0.436,2.391,0.885c0.086,0.45-0.113,0.721-0.426,1.174c-0.314,0.453-0.182,0.643-0.182,0.643"/>
<path fill="#F2F2F2" stroke="#F2F2F2" stroke-width="0.4447" stroke-miterlimit="10" d="M50.139,53.525c0,0-0.488,0.029-0.66-0.199
	c-0.17-0.229-0.336-0.569-0.092-0.705c0.243-0.137,1.527-0.456,1.535-0.122c0,0,0.178-0.259,0.262-0.517
	c0.086-0.258,0.117-0.396,0.117-0.396c-0.113,0.395-2.305,0.436-2.391,0.885c-0.085,0.45,0.111,0.721,0.426,1.174
	s0.182,0.643,0.182,0.643"/>
<path fill="#F2F2F2" stroke="#F2F2F2" stroke-width="0.4447" stroke-miterlimit="10" d="M56.529,53.525c0,0,0.486,0.029,0.658-0.199
	s0.338-0.569,0.094-0.705c-0.243-0.137-1.528-0.456-1.535-0.122c0,0-0.178-0.259-0.262-0.517c-0.086-0.258-0.117-0.396-0.117-0.396
	c0.113,0.395,2.305,0.436,2.391,0.885c0.086,0.45-0.113,0.721-0.426,1.174c-0.314,0.453-0.182,0.643-0.182,0.643"/>
<path fill="#F2F2F2" stroke="#F2F2F2" stroke-width="0.4447" stroke-miterlimit="10" d="M7.471,53.075c0,0-0.487,0.028-0.659-0.199
	c-0.171-0.229-0.336-0.569-0.093-0.705c0.244-0.137,1.529-0.457,1.536-0.122c0,0,0.177-0.258,0.262-0.518
	c0.085-0.258,0.117-0.395,0.117-0.395c-0.114,0.393-2.305,0.434-2.391,0.885c-0.085,0.449,0.112,0.721,0.425,1.174
	s0.181,0.641,0.181,0.641"/>
<path fill="#F2F2F2" stroke="#F2F2F2" stroke-width="0.4447" stroke-miterlimit="10" d="M13.862,53.075c0,0,0.487,0.028,0.659-0.199
	c0.172-0.229,0.337-0.569,0.093-0.705c-0.243-0.137-1.528-0.457-1.535-0.122c0,0-0.178-0.258-0.262-0.518
	c-0.086-0.258-0.117-0.395-0.117-0.395c0.114,0.393,2.305,0.434,2.391,0.885c0.086,0.449-0.113,0.721-0.426,1.174
	c-0.314,0.453-0.182,0.641-0.182,0.641"/>
<path stroke="#000000" stroke-width="0.4447" stroke-miterlimit="10" d="M-3.196,31.24c0,0-0.487,0.029-0.659-0.199
	c-0.171-0.229-0.336-0.57-0.093-0.705c0.244-0.138,1.529-0.457,1.536-0.123c0,0,0.177-0.258,0.262-0.516s0.117-0.396,0.117-0.396
	c-0.114,0.393-2.305,0.434-2.39,0.884c-0.086,0.45,0.111,0.721,0.425,1.174S-3.817,32-3.817,32"/>
<g>
	<path d="M3.554,37.741h-7.109V37.26c0-0.146,0.095-0.266,0.221-0.358c-0.454-0.532-1.467-1.852-1.467-3.016
		c0-1.47,1.817-3.352,1.895-3.431c0.008-0.008,0.903-0.963,0.603-1.994c-0.304-1.045-1.501-1.47-1.514-1.474l-0.168-0.058l0-0.669
		h7.973v0.669l-0.169,0.058c-0.012,0.004-1.21,0.43-1.515,1.474c-0.302,1.037,0.594,1.986,0.603,1.995
		c0.076,0.078,1.894,1.96,1.894,3.43c0,1.164-1.013,2.483-1.467,3.016c0.126,0.093,0.221,0.212,0.221,0.358V37.741z M-2.932,37.241
		h5.862C2.9,37.225,2.869,37.21,2.842,37.199l-0.333-0.141l0.249-0.262C2.773,36.779,4.3,35.154,4.3,33.886
		c0-1.267-1.735-3.063-1.753-3.082c-0.046-0.048-1.105-1.171-0.724-2.481c0.234-0.805,0.86-1.299,1.315-1.563h-6.275
		c0.456,0.264,1.08,0.758,1.314,1.563c0.381,1.312-0.679,2.434-0.724,2.48c-0.019,0.02-1.754,1.816-1.754,3.083
		c0,1.269,1.527,2.894,1.542,2.911l0.248,0.262l-0.332,0.141C-2.872,37.211-2.902,37.226-2.932,37.241z"/>
</g>
<path stroke="#000000" stroke-width="0.4447" stroke-miterlimit="10" d="M3.195,31.24c0,0,0.487,0.029,0.659-0.199
	c0.172-0.229,0.337-0.57,0.093-0.705c-0.243-0.138-1.528-0.457-1.535-0.123c0,0-0.178-0.258-0.262-0.516
	c-0.086-0.258-0.117-0.396-0.117-0.396c0.114,0.393,2.305,0.435,2.391,0.884c0.086,0.45-0.113,0.721-0.426,1.174
	C3.684,31.812,3.816,32,3.816,32"/>
<path stroke="#000000" stroke-width="0.4447" stroke-miterlimit="10" d="M7.471,53.076c0,0-0.487,0.029-0.659-0.199
	c-0.171-0.229-0.336-0.57-0.093-0.705c0.244-0.138,1.529-0.457,1.536-0.123c0,0,0.177-0.258,0.262-0.516s0.117-0.396,0.117-0.396
	c-0.114,0.393-2.305,0.434-2.39,0.884c-0.086,0.45,0.111,0.721,0.425,1.174s0.181,0.642,0.181,0.642"/>
<g>
	<path d="M14.221,59.577H7.112v-0.481c0-0.146,0.095-0.266,0.221-0.358c-0.454-0.532-1.467-1.852-1.467-3.016
		c0-1.47,1.817-3.352,1.895-3.431c0.008-0.008,0.903-0.963,0.603-1.994c-0.304-1.045-1.501-1.47-1.514-1.475l-0.168-0.058l0-0.669
		h7.973v0.669l-0.169,0.058c-0.012,0.005-1.21,0.43-1.515,1.475c-0.302,1.037,0.594,1.986,0.603,1.995
		c0.076,0.078,1.894,1.96,1.894,3.43c0,1.164-1.013,2.483-1.467,3.016c0.126,0.093,0.221,0.212,0.221,0.358V59.577z M7.735,59.077
		h5.862c-0.031-0.017-0.062-0.031-0.088-0.042l-0.333-0.141l0.249-0.262c0.016-0.018,1.542-1.643,1.542-2.911
		c0-1.267-1.735-3.063-1.753-3.082c-0.046-0.048-1.105-1.171-0.724-2.481c0.234-0.805,0.86-1.299,1.315-1.563H7.53
		c0.456,0.264,1.08,0.758,1.314,1.563c0.381,1.312-0.679,2.434-0.724,2.48c-0.019,0.02-1.754,1.816-1.754,3.083
		c0,1.269,1.527,2.894,1.542,2.911l0.248,0.262l-0.332,0.141C7.795,59.047,7.765,59.062,7.735,59.077z"/>
</g>
<path stroke="#000000" stroke-width="0.4447" stroke-miterlimit="10" d="M13.862,53.076c0,0,0.487,0.029,0.659-0.199
	c0.172-0.229,0.337-0.57,0.093-0.705c-0.243-0.138-1.528-0.457-1.535-0.123c0,0-0.178-0.258-0.262-0.516
	c-0.086-0.258-0.117-0.396-0.117-0.396c0.114,0.393,2.305,0.435,2.391,0.884c0.086,0.45-0.113,0.721-0.426,1.174
	c-0.314,0.453-0.182,0.642-0.182,0.642"/>
<path stroke="#000000" stroke-width="0.4447" stroke-miterlimit="10" d="M28.805,53.076c0,0-0.487,0.029-0.659-0.199
	c-0.171-0.229-0.336-0.57-0.093-0.705c0.244-0.138,1.529-0.457,1.536-0.123c0,0,0.177-0.258,0.262-0.516s0.117-0.396,0.117-0.396
	c-0.114,0.393-2.305,0.434-2.39,0.884c-0.086,0.45,0.111,0.721,0.425,1.174s0.181,0.642,0.181,0.642"/>
<g>
	<path d="M35.555,59.577h-7.109v-0.481c0-0.146,0.095-0.266,0.221-0.358c-0.454-0.532-1.467-1.852-1.467-3.016
		c0-1.47,1.817-3.352,1.895-3.431c0.008-0.008,0.903-0.963,0.603-1.994c-0.304-1.045-1.501-1.47-1.514-1.475l-0.168-0.058l0-0.669
		h7.973v0.669l-0.169,0.058c-0.012,0.005-1.211,0.43-1.515,1.475c-0.302,1.037,0.595,1.986,0.603,1.995
		c0.076,0.078,1.895,1.96,1.895,3.43c0,1.164-1.014,2.483-1.467,3.016c0.125,0.093,0.221,0.212,0.221,0.358V59.577z M29.069,59.077
		h5.863c-0.031-0.017-0.063-0.031-0.089-0.042l-0.333-0.141l0.248-0.262c0.016-0.018,1.543-1.643,1.543-2.911
		c0-1.267-1.736-3.063-1.754-3.082c-0.046-0.048-1.104-1.171-0.724-2.481c0.234-0.805,0.86-1.299,1.315-1.563h-6.275
		c0.456,0.264,1.08,0.758,1.314,1.563c0.381,1.312-0.679,2.434-0.724,2.48c-0.019,0.02-1.754,1.816-1.754,3.083
		c0,1.269,1.527,2.894,1.542,2.911l0.248,0.262l-0.332,0.141C29.129,59.047,29.098,59.062,29.069,59.077z"/>
</g>
<path stroke="#000000" stroke-width="0.4447" stroke-miterlimit="10" d="M35.195,53.076c0,0,0.487,0.029,0.659-0.199
	c0.172-0.229,0.337-0.57,0.093-0.705c-0.242-0.138-1.527-0.457-1.535-0.123c0,0-0.178-0.258-0.262-0.516
	c-0.086-0.258-0.117-0.396-0.117-0.396c0.114,0.393,2.305,0.435,2.391,0.884c0.087,0.45-0.112,0.721-0.426,1.174
	s-0.182,0.642-0.182,0.642"/>
<path stroke="#000000" stroke-width="0.4447" stroke-miterlimit="10" d="M50.139,53.076c0,0-0.487,0.029-0.659-0.199
	c-0.171-0.229-0.336-0.57-0.093-0.705c0.244-0.138,1.529-0.457,1.535-0.123c0,0,0.178-0.258,0.263-0.516s0.116-0.396,0.116-0.396
	c-0.113,0.393-2.305,0.434-2.389,0.884c-0.086,0.45,0.11,0.721,0.424,1.174c0.314,0.453,0.182,0.642,0.182,0.642"/>
<g>
	<path d="M56.889,59.577h-7.109v-0.481c0-0.146,0.096-0.266,0.221-0.358c-0.453-0.532-1.467-1.852-1.467-3.016
		c0-1.47,1.818-3.352,1.895-3.431c0.008-0.008,0.903-0.963,0.604-1.994c-0.304-1.045-1.502-1.47-1.514-1.475l-0.168-0.058
		l-0.001-0.669h7.973v0.669l-0.169,0.058c-0.012,0.005-1.211,0.43-1.515,1.475c-0.302,1.037,0.595,1.986,0.603,1.995
		c0.076,0.078,1.895,1.96,1.895,3.43c0,1.164-1.014,2.483-1.467,3.016c0.125,0.093,0.221,0.212,0.221,0.358V59.577z M50.402,59.077
		h5.863c-0.031-0.017-0.063-0.031-0.089-0.042l-0.333-0.141l0.248-0.262c0.016-0.018,1.543-1.643,1.543-2.911
		c0-1.267-1.736-3.063-1.754-3.082c-0.046-0.048-1.104-1.171-0.724-2.481c0.234-0.805,0.86-1.299,1.315-1.563h-6.275
		c0.456,0.264,1.08,0.758,1.314,1.563c0.381,1.312-0.679,2.434-0.725,2.48c-0.018,0.02-1.754,1.816-1.754,3.083
		c0,1.269,1.527,2.894,1.543,2.911l0.248,0.262l-0.332,0.141C50.463,59.047,50.432,59.062,50.402,59.077z"/>
</g>
<path stroke="#000000" stroke-width="0.4447" stroke-miterlimit="10" d="M56.529,53.076c0,0,0.487,0.029,0.659-0.199
	c0.172-0.229,0.337-0.57,0.093-0.705c-0.242-0.138-1.527-0.457-1.535-0.123c0,0-0.178-0.258-0.262-0.516
	c-0.086-0.258-0.117-0.396-0.117-0.396c0.114,0.393,2.305,0.435,2.391,0.884c0.087,0.45-0.112,0.721-0.426,1.174
	s-0.182,0.642-0.182,0.642"/>
<path stroke="#000000" stroke-width="0.4447" stroke-miterlimit="10" d="M17.888,31.24c0,0-0.487,0.029-0.659-0.199
	c-0.171-0.229-0.336-0.57-0.093-0.705c0.244-0.138,1.529-0.457,1.536-0.123c0,0,0.177-0.258,0.262-0.516s0.117-0.396,0.117-0.396
	c-0.114,0.393-2.305,0.434-2.39,0.884c-0.086,0.45,0.111,0.721,0.425,1.174S17.267,32,17.267,32"/>
<g>
	<path d="M24.638,37.741h-7.109V37.26c0-0.146,0.095-0.266,0.221-0.358c-0.454-0.532-1.467-1.852-1.467-3.016
		c0-1.47,1.817-3.352,1.895-3.431c0.008-0.008,0.903-0.963,0.603-1.994c-0.304-1.045-1.501-1.47-1.514-1.474l-0.168-0.058l0-0.669
		h7.973v0.669l-0.169,0.058c-0.012,0.004-1.21,0.43-1.515,1.474c-0.302,1.037,0.594,1.986,0.603,1.995
		c0.076,0.078,1.894,1.96,1.894,3.43c0,1.164-1.013,2.483-1.467,3.016c0.126,0.093,0.221,0.212,0.221,0.358V37.741z M18.152,37.241
		h5.862c-0.031-0.017-0.062-0.031-0.088-0.042l-0.333-0.141l0.249-0.262c0.016-0.018,1.542-1.643,1.542-2.911
		c0-1.267-1.735-3.063-1.753-3.082c-0.046-0.048-1.105-1.171-0.724-2.481c0.234-0.805,0.86-1.299,1.315-1.563h-6.275
		c0.456,0.264,1.08,0.758,1.314,1.563c0.381,1.312-0.679,2.434-0.724,2.48c-0.019,0.02-1.754,1.816-1.754,3.083
		c0,1.269,1.527,2.894,1.542,2.911l0.248,0.262l-0.332,0.141C18.212,37.211,18.182,37.226,18.152,37.241z"/>
</g>
<path stroke="#000000" stroke-width="0.4447" stroke-miterlimit="10" d="M24.279,31.24c0,0,0.487,0.029,0.659-0.199
	c0.172-0.229,0.337-0.57,0.093-0.705c-0.243-0.138-1.528-0.457-1.535-0.123c0,0-0.178-0.258-0.262-0.516
	c-0.086-0.258-0.117-0.396-0.117-0.396c0.114,0.393,2.305,0.435,2.391,0.884c0.086,0.45-0.113,0.721-0.426,1.174
	C24.768,31.812,24.9,32,24.9,32"/>
<path stroke="#000000" stroke-width="0.4447" stroke-miterlimit="10" d="M39.473,31.24c0,0-0.487,0.029-0.659-0.199
	c-0.171-0.229-0.336-0.57-0.093-0.705c0.244-0.138,1.529-0.457,1.535-0.123c0,0,0.178-0.258,0.263-0.516s0.116-0.396,0.116-0.396
	c-0.113,0.393-2.305,0.434-2.389,0.884c-0.086,0.45,0.11,0.721,0.424,1.174C38.984,31.812,38.852,32,38.852,32"/>
<g>
	<path d="M46.223,37.741h-7.109V37.26c0-0.146,0.096-0.266,0.221-0.358c-0.453-0.532-1.467-1.852-1.467-3.016
		c0-1.47,1.818-3.352,1.895-3.431c0.008-0.008,0.903-0.963,0.604-1.994c-0.304-1.045-1.502-1.47-1.514-1.474l-0.168-0.058
		l-0.001-0.669h7.973v0.669l-0.169,0.058c-0.012,0.004-1.211,0.43-1.515,1.474c-0.302,1.037,0.595,1.986,0.603,1.995
		c0.076,0.078,1.895,1.96,1.895,3.43c0,1.164-1.014,2.483-1.467,3.016c0.125,0.093,0.221,0.212,0.221,0.358V37.741z M39.736,37.241
		H45.6c-0.031-0.017-0.063-0.031-0.089-0.042l-0.333-0.141l0.248-0.262c0.016-0.018,1.543-1.643,1.543-2.911
		c0-1.267-1.736-3.063-1.754-3.082c-0.046-0.048-1.104-1.171-0.724-2.481c0.234-0.805,0.86-1.299,1.315-1.563h-6.275
		c0.456,0.264,1.08,0.758,1.314,1.563c0.381,1.312-0.679,2.434-0.725,2.48c-0.018,0.02-1.754,1.816-1.754,3.083
		c0,1.269,1.527,2.894,1.543,2.911l0.248,0.262l-0.332,0.141C39.797,37.211,39.766,37.226,39.736,37.241z"/>
</g>
<path stroke="#000000" stroke-width="0.4447" stroke-miterlimit="10" d="M45.863,31.24c0,0,0.487,0.029,0.659-0.199
	c0.172-0.229,0.337-0.57,0.093-0.705c-0.242-0.138-1.527-0.457-1.535-0.123c0,0-0.178-0.258-0.262-0.516
	c-0.086-0.258-0.117-0.396-0.117-0.396c0.114,0.393,2.305,0.435,2.391,0.884c0.087,0.45-0.112,0.721-0.426,1.174
	S46.484,32,46.484,32"/>
<path stroke="#000000" stroke-width="0.4447" stroke-miterlimit="10" d="M60.805,31.24c0,0-0.487,0.029-0.659-0.199
	c-0.171-0.229-0.336-0.57-0.093-0.705c0.244-0.138,1.529-0.457,1.535-0.123c0,0,0.178-0.258,0.263-0.516s0.116-0.396,0.116-0.396
	c-0.113,0.393-2.305,0.434-2.389,0.884c-0.086,0.45,0.11,0.721,0.424,1.174C60.316,31.812,60.184,32,60.184,32"/>
<g>
	<path d="M67.555,37.741h-7.109V37.26c0-0.146,0.096-0.266,0.221-0.358c-0.453-0.532-1.467-1.852-1.467-3.016
		c0-1.47,1.818-3.352,1.895-3.431c0.008-0.008,0.903-0.963,0.604-1.994c-0.304-1.045-1.502-1.47-1.514-1.474l-0.168-0.058
		l-0.001-0.669h7.973v0.669l-0.169,0.058c-0.012,0.004-1.211,0.43-1.515,1.474c-0.302,1.037,0.595,1.986,0.603,1.995
		c0.076,0.078,1.895,1.96,1.895,3.43c0,1.164-1.014,2.483-1.467,3.016c0.125,0.093,0.221,0.212,0.221,0.358V37.741z M61.068,37.241
		h5.863c-0.031-0.017-0.063-0.031-0.089-0.042l-0.333-0.141l0.248-0.262c0.016-0.018,1.543-1.643,1.543-2.911
		c0-1.267-1.736-3.063-1.754-3.082c-0.046-0.048-1.104-1.171-0.724-2.481c0.234-0.805,0.86-1.299,1.315-1.563h-6.275
		c0.456,0.264,1.08,0.758,1.314,1.563c0.381,1.312-0.679,2.434-0.725,2.48c-0.018,0.02-1.754,1.816-1.754,3.083
		c0,1.269,1.527,2.894,1.543,2.911l0.248,0.262l-0.332,0.141C61.129,37.211,61.098,37.226,61.068,37.241z"/>
</g>
<path stroke="#000000" stroke-width="0.4447" stroke-miterlimit="10" d="M67.195,31.24c0,0,0.487,0.029,0.659-0.199
	c0.172-0.229,0.337-0.57,0.093-0.705c-0.242-0.138-1.527-0.457-1.535-0.123c0,0-0.178-0.258-0.262-0.516
	c-0.086-0.258-0.117-0.396-0.117-0.396c0.114,0.393,2.305,0.435,2.391,0.884c0.087,0.45-0.112,0.721-0.426,1.174
	S67.816,32,67.816,32"/>
</svg>
