<?xml version="1.0" encoding="utf-8"?>
<!-- Generator: Adobe Illustrator 15.0.0, SVG Export Plug-In . SVG Version: 6.00 Build 0)  -->
<!DOCTYPE svg PUBLIC "-//W3C//DTD SVG 1.1//EN" "http://www.w3.org/Graphics/SVG/1.1/DTD/svg11.dtd">
<svg version="1.1" id="Livello_1" xmlns="http://www.w3.org/2000/svg" xmlns:xlink="http://www.w3.org/1999/xlink" x="0px" y="0px"
	 width="64px" height="64px" viewBox="0 0 64 64" enable-background="new 0 0 64 64" xml:space="preserve">
<path fill="#8BC53F" d="M53.612,51.537V3.067c0,0-0.079-0.251-0.185-0.522c-0.105-0.271-0.306-0.614-0.438-0.805H29.382L29.25,1.969
	c-0.09,0.144-0.174,0.321-0.229,0.434c-0.054,0.113-0.177,0.438-0.208,0.529c-0.031,0.091-0.041,0.136-0.041,0.136v48.47H53.612"/>
<path fill="#FF0000" d="M35.228,62.26V13.79c0,0-0.08-0.251-0.186-0.522c-0.105-0.271-0.306-0.615-0.438-0.805H10.996l-0.132,0.228
	c-0.089,0.144-0.174,0.321-0.228,0.434c-0.054,0.112-0.177,0.438-0.208,0.529s-0.04,0.136-0.04,0.136v48.47H35.228"/>
<path fill="#FFFFFF" d="M17.745,20.674c0,0.328-0.266,0.594-0.594,0.594h-4.356c-0.328,0-0.594-0.266-0.594-0.594v-4.355
	c0-0.328,0.266-0.594,0.594-0.594h4.356c0.328,0,0.594,0.266,0.594,0.594V20.674z"/>
<path fill="#FFFFFF" d="M32.713,20.61c0,0.324-0.262,0.587-0.586,0.587h-4.3c-0.324,0-0.587-0.263-0.587-0.587v-4.3
	c0-0.324,0.263-0.586,0.587-0.586h4.3c0.324,0,0.586,0.262,0.586,0.586V20.61z"/>
<path fill="#FFFFFF" d="M25.239,20.692c0,0.33-0.267,0.596-0.596,0.596h-4.372c-0.329,0-0.596-0.267-0.596-0.596V16.32
	c0-0.329,0.267-0.596,0.596-0.596h4.372c0.33,0,0.596,0.267,0.596,0.596V20.692z"/>
<path fill="#FFFFFF" d="M17.745,28.047c0,0.328-0.266,0.594-0.594,0.594h-4.356c-0.328,0-0.594-0.266-0.594-0.594v-4.355
	c0-0.328,0.266-0.594,0.594-0.594h4.356c0.328,0,0.594,0.266,0.594,0.594V28.047z"/>
<path fill="#FFFFFF" d="M32.713,27.984c0,0.323-0.262,0.586-0.586,0.586h-4.3c-0.324,0-0.587-0.263-0.587-0.586v-4.3
	c0-0.324,0.263-0.586,0.587-0.586h4.3c0.324,0,0.586,0.262,0.586,0.586V27.984z"/>
<path fill="#FFFFFF" d="M25.239,28.065c0,0.33-0.267,0.596-0.596,0.596h-4.372c-0.329,0-0.596-0.267-0.596-0.596v-4.372
	c0-0.329,0.267-0.596,0.596-0.596h4.372c0.33,0,0.596,0.267,0.596,0.596V28.065z"/>
<path fill="#FFFFFF" d="M17.745,35.365c0,0.328-0.266,0.594-0.594,0.594h-4.356c-0.328,0-0.594-0.266-0.594-0.594v-4.356
	c0-0.328,0.266-0.593,0.594-0.593h4.356c0.328,0,0.594,0.265,0.594,0.593V35.365z"/>
<path fill="#FFFFFF" d="M32.713,35.302c0,0.324-0.262,0.587-0.586,0.587h-4.3c-0.324,0-0.587-0.263-0.587-0.587v-4.3
	c0-0.324,0.263-0.586,0.587-0.586h4.3c0.324,0,0.586,0.262,0.586,0.586V35.302z"/>
<path fill="#FFFFFF" d="M25.239,35.383c0,0.33-0.267,0.597-0.596,0.597h-4.372c-0.329,0-0.596-0.267-0.596-0.597v-4.372
	c0-0.329,0.267-0.595,0.596-0.595h4.372c0.33,0,0.596,0.267,0.596,0.595V35.383z"/>
<path fill="#FFFFFF" d="M17.745,42.683c0,0.328-0.266,0.595-0.594,0.595h-4.356c-0.328,0-0.594-0.267-0.594-0.595v-4.355
	c0-0.328,0.266-0.594,0.594-0.594h4.356c0.328,0,0.594,0.266,0.594,0.594V42.683z"/>
<path fill="#FFFFFF" d="M32.713,42.619c0,0.324-0.262,0.587-0.586,0.587h-4.3c-0.324,0-0.587-0.263-0.587-0.587v-4.3
	c0-0.324,0.263-0.586,0.587-0.586h4.3c0.324,0,0.586,0.262,0.586,0.586V42.619z"/>
<path fill="#FFFFFF" d="M25.239,42.701c0,0.329-0.267,0.596-0.596,0.596h-4.372c-0.329,0-0.596-0.267-0.596-0.596v-4.372
	c0-0.329,0.267-0.596,0.596-0.596h4.372c0.33,0,0.596,0.267,0.596,0.596V42.701z"/>
<path fill="#FFFFFF" d="M17.745,50.001c0,0.328-0.266,0.594-0.594,0.594h-4.356c-0.328,0-0.594-0.266-0.594-0.594v-4.356
	c0-0.328,0.266-0.594,0.594-0.594h4.356c0.328,0,0.594,0.266,0.594,0.594V50.001z"/>
<path fill="#FFFFFF" d="M32.713,49.938c0,0.324-0.262,0.587-0.586,0.587h-4.3c-0.324,0-0.587-0.263-0.587-0.587v-4.301
	c0-0.323,0.263-0.586,0.587-0.586h4.3c0.324,0,0.586,0.263,0.586,0.586V49.938z"/>
<path fill="#FFFFFF" d="M25.239,50.019c0,0.329-0.267,0.596-0.596,0.596h-4.372c-0.329,0-0.596-0.267-0.596-0.596v-4.372
	c0-0.329,0.267-0.596,0.596-0.596h4.372c0.33,0,0.596,0.267,0.596,0.596V50.019z"/>
<polygon fill="#FFFFFF" points="10.996,12.463 34.604,12.463 34.854,12.874 34.958,13.078 35.094,13.403 35.174,13.629 
	35.228,13.79 35.228,62.26 53.612,51.537 53.612,3.067 53.502,2.743 53.36,2.389 53.192,2.065 52.99,1.74 29.382,1.74 "/>
<polygon fill="none" stroke="#FF0000" stroke-width="0.7761" stroke-miterlimit="10" points="35.228,62.26 53.612,51.537 
	53.612,3.128 53.58,2.971 53.514,2.777 53.407,2.506 53.291,2.256 53.192,2.065 53.102,1.919 52.99,1.74 29.382,1.74 10.996,12.463 
	10.872,12.677 10.75,12.892 10.651,13.093 10.589,13.231 10.483,13.503 10.428,13.654 10.388,13.79 10.388,62.26 "/>
</svg>
