<?xml version="1.0" encoding="utf-8"?>
<!-- Generator: Adobe Illustrator 15.0.0, SVG Export Plug-In . SVG Version: 6.00 Build 0)  -->
<!DOCTYPE svg PUBLIC "-//W3C//DTD SVG 1.1//EN" "http://www.w3.org/Graphics/SVG/1.1/DTD/svg11.dtd">
<svg version="1.1" id="Livello_1" xmlns="http://www.w3.org/2000/svg" xmlns:xlink="http://www.w3.org/1999/xlink" x="0px" y="0px"
	 width="64px" height="64px" viewBox="0 0 64 64" enable-background="new 0 0 64 64" xml:space="preserve">
<circle fill="#414042" cx="5.213" cy="5.448" r="1.335"/>
<circle fill="#414042" cx="15.875" cy="5.448" r="1.335"/>
<circle fill="#414042" cx="26.536" cy="5.448" r="1.335"/>
<circle fill="#414042" cx="37.197" cy="5.448" r="1.335"/>
<circle fill="#414042" cx="47.859" cy="5.448" r="1.335"/>
<circle fill="#414042" cx="58.52" cy="5.448" r="1.335"/>
<circle fill="#414042" cx="5.213" cy="16.109" r="1.335"/>
<circle fill="#414042" cx="26.536" cy="16.109" r="1.335"/>
<circle fill="#414042" cx="37.197" cy="16.109" r="1.335"/>
<circle fill="#414042" cx="47.859" cy="16.109" r="1.335"/>
<circle fill="#414042" cx="58.521" cy="16.109" r="1.335"/>
<circle fill="#414042" cx="5.213" cy="26.77" r="1.335"/>
<circle fill="#414042" cx="15.875" cy="26.77" r="1.335"/>
<circle fill="#414042" cx="26.536" cy="26.77" r="1.335"/>
<circle fill="#414042" cx="37.197" cy="26.77" r="1.335"/>
<circle fill="#414042" cx="47.859" cy="26.77" r="1.335"/>
<circle fill="#414042" cx="58.521" cy="26.77" r="1.335"/>
<circle fill="#414042" cx="5.213" cy="37.389" r="1.335"/>
<circle fill="#414042" cx="15.875" cy="37.389" r="1.335"/>
<circle fill="#414042" cx="26.536" cy="37.389" r="1.335"/>
<circle fill="#414042" cx="47.859" cy="37.389" r="1.335"/>
<circle fill="#414042" cx="58.521" cy="37.389" r="1.335"/>
<circle fill="#414042" cx="5.213" cy="48.029" r="1.335"/>
<circle fill="#414042" cx="15.875" cy="48.029" r="1.335"/>
<circle fill="#414042" cx="37.197" cy="48.029" r="1.335"/>
<circle fill="#414042" cx="47.859" cy="48.029" r="1.335"/>
<circle fill="#414042" cx="58.521" cy="48.029" r="1.335"/>
<circle fill="#414042" cx="5.213" cy="58.67" r="1.335"/>
<circle fill="#414042" cx="15.875" cy="58.67" r="1.335"/>
<circle fill="#414042" cx="26.536" cy="58.67" r="1.335"/>
<circle fill="#414042" cx="37.197" cy="58.67" r="1.335"/>
<circle fill="#414042" cx="47.859" cy="58.67" r="1.335"/>
<circle fill="#414042" cx="58.521" cy="58.67" r="1.335"/>
<rect x="15.207" y="20.037" fill="#414042" width="1.335" height="3.713"/>
<rect x="37.197" y="41.316" fill="#414042" width="1.336" height="3.713"/>
<rect x="25.868" y="51.957" fill="#414042" width="1.336" height="3.713"/>
<polygon fill="#414042" points="9.454,20.037 15.874,8.917 22.294,20.037 "/>
<polygon fill="#414042" points="31.444,41.316 37.864,30.196 44.285,41.316 "/>
<polygon fill="#414042" points="20.115,51.958 26.535,40.838 32.956,51.958 "/>
<rect x="47.191" y="20.037" fill="#414042" width="1.336" height="3.713"/>
<polygon fill="#414042" points="41.439,20.037 47.859,8.917 54.279,20.037 "/>
<rect x="47.191" y="51.957" fill="#414042" width="1.336" height="3.713"/>
<polygon fill="#414042" points="41.439,51.957 47.859,40.838 54.279,51.957 "/>
<rect x="15.207" y="41.316" fill="#414042" width="1.335" height="3.713"/>
<polygon fill="#414042" points="9.454,41.316 15.874,30.196 22.294,41.316 "/>
</svg>
