<?xml version="1.0" encoding="utf-8"?>
<!-- Generator: Adobe Illustrator 15.0.0, SVG Export Plug-In . SVG Version: 6.00 Build 0)  -->
<!DOCTYPE svg PUBLIC "-//W3C//DTD SVG 1.1//EN" "http://www.w3.org/Graphics/SVG/1.1/DTD/svg11.dtd">
<svg version="1.1" id="Livello_1" xmlns="http://www.w3.org/2000/svg" xmlns:xlink="http://www.w3.org/1999/xlink" x="0px" y="0px"
	 width="64px" height="64px" viewBox="0 0 64 64" enable-background="new 0 0 64 64" xml:space="preserve">
<circle fill="#ED1E79" cx="7.213" cy="3.999" r="1.918"/>
<circle fill="#ED1E79" cx="3.56" cy="11.999" r="1.98"/>
<circle fill="#ED1E79" cx="7.165" cy="20" r="2.063"/>
<circle fill="#ED1E79" cx="3.56" cy="27.999" r="2.063"/>
<circle fill="#ED1E79" cx="7.165" cy="36.001" r="2.063"/>
<circle fill="#ED1E79" cx="3.56" cy="44" r="2.063"/>
<circle fill="#ED1E79" cx="7.165" cy="52" r="2.063"/>
<circle fill="#ED1E79" cx="3.559" cy="59.792" r="2.063"/>
<circle fill="#ED1E79" cx="0" cy="52" r="2.063"/>
<circle fill="#ED1E79" cx="0" cy="36.001" r="2.063"/>
<circle fill="#ED1E79" cx="0" cy="20" r="2.063"/>
<circle fill="#ED1E79" cx="-25.833" cy="27.999" r="2.063"/>
<circle fill="#ED1E79" cx="0.048" cy="3.999" r="2.063"/>
<circle fill="#EAB886" cx="-25.833" cy="17.937" r="2.063"/>
<circle fill="#ED1E79" cx="14.334" cy="3.999" r="1.918"/>
<circle fill="#ED1E79" cx="10.681" cy="11.999" r="1.98"/>
<circle fill="#ED1E79" cx="14.286" cy="20" r="2.063"/>
<circle fill="#ED1E79" cx="10.681" cy="27.999" r="2.063"/>
<circle fill="#ED1E79" cx="14.286" cy="36.001" r="2.063"/>
<circle fill="#ED1E79" cx="10.681" cy="44" r="2.063"/>
<circle fill="#ED1E79" cx="14.286" cy="52" r="2.063"/>
<circle fill="#ED1E79" cx="10.68" cy="59.792" r="2.063"/>
<circle fill="#ED1E79" cx="21.433" cy="3.999" r="1.918"/>
<circle fill="#ED1E79" cx="17.78" cy="11.999" r="1.98"/>
<circle fill="#ED1E79" cx="21.385" cy="20" r="2.063"/>
<circle fill="#ED1E79" cx="17.78" cy="27.999" r="2.063"/>
<circle fill="#ED1E79" cx="21.385" cy="36.001" r="2.063"/>
<circle fill="#ED1E79" cx="17.78" cy="44" r="2.063"/>
<circle fill="#ED1E79" cx="21.385" cy="52" r="2.063"/>
<circle fill="#ED1E79" cx="17.779" cy="59.792" r="2.063"/>
<circle fill="#ED1E79" cx="28.553" cy="3.999" r="1.918"/>
<circle fill="#ED1E79" cx="24.9" cy="11.999" r="1.98"/>
<circle fill="#ED1E79" cx="28.505" cy="20" r="2.063"/>
<circle fill="#ED1E79" cx="24.9" cy="27.999" r="2.063"/>
<circle fill="#ED1E79" cx="28.505" cy="36.001" r="2.063"/>
<circle fill="#ED1E79" cx="24.9" cy="44" r="2.063"/>
<circle fill="#ED1E79" cx="28.505" cy="52" r="2.063"/>
<circle fill="#ED1E79" cx="24.899" cy="59.792" r="2.063"/>
<circle fill="#ED1E79" cx="35.652" cy="3.999" r="1.918"/>
<circle fill="#ED1E79" cx="32" cy="11.999" r="1.98"/>
<circle fill="#ED1E79" cx="35.605" cy="20" r="2.063"/>
<circle fill="#ED1E79" cx="32" cy="27.999" r="2.063"/>
<circle fill="#ED1E79" cx="35.605" cy="36.001" r="2.063"/>
<circle fill="#ED1E79" cx="32" cy="44" r="2.063"/>
<circle fill="#ED1E79" cx="35.605" cy="52" r="2.063"/>
<circle fill="#ED1E79" cx="31.999" cy="59.792" r="2.063"/>
<circle fill="#ED1E79" cx="42.773" cy="3.999" r="1.918"/>
<circle fill="#ED1E79" cx="39.121" cy="11.999" r="1.98"/>
<circle fill="#ED1E79" cx="42.727" cy="20" r="2.063"/>
<circle fill="#ED1E79" cx="39.121" cy="27.999" r="2.063"/>
<circle fill="#ED1E79" cx="42.727" cy="36.001" r="2.063"/>
<circle fill="#ED1E79" cx="39.121" cy="44" r="2.063"/>
<circle fill="#ED1E79" cx="42.727" cy="52" r="2.063"/>
<circle fill="#ED1E79" cx="39.12" cy="59.792" r="2.063"/>
<circle fill="#ED1E79" cx="49.874" cy="3.999" r="1.918"/>
<circle fill="#ED1E79" cx="46.221" cy="11.999" r="1.98"/>
<circle fill="#ED1E79" cx="49.826" cy="20" r="2.063"/>
<circle fill="#ED1E79" cx="46.221" cy="27.999" r="2.063"/>
<circle fill="#ED1E79" cx="49.826" cy="36.001" r="2.063"/>
<circle fill="#ED1E79" cx="46.221" cy="44" r="2.063"/>
<circle fill="#ED1E79" cx="49.826" cy="52" r="2.063"/>
<circle fill="#ED1E79" cx="46.221" cy="59.792" r="2.063"/>
<circle fill="#ED1E79" cx="56.993" cy="3.999" r="1.918"/>
<circle fill="#ED1E79" cx="53.341" cy="11.999" r="1.98"/>
<circle fill="#ED1E79" cx="56.945" cy="20" r="2.063"/>
<circle fill="#ED1E79" cx="53.341" cy="27.999" r="2.063"/>
<circle fill="#ED1E79" cx="56.945" cy="36.001" r="2.063"/>
<circle fill="#ED1E79" cx="53.341" cy="44" r="2.063"/>
<circle fill="#ED1E79" cx="56.945" cy="52" r="2.063"/>
<circle fill="#ED1E79" cx="53.34" cy="59.792" r="2.063"/>
<circle fill="#ED1E79" cx="64.096" cy="3.999" r="1.918"/>
<circle fill="#ED1E79" cx="60.441" cy="11.999" r="1.98"/>
<circle fill="#ED1E79" cx="64.047" cy="20" r="2.063"/>
<circle fill="#ED1E79" cx="60.441" cy="27.999" r="2.063"/>
<circle fill="#ED1E79" cx="64.047" cy="36.001" r="2.063"/>
<circle fill="#ED1E79" cx="60.441" cy="44" r="2.063"/>
<circle fill="#ED1E79" cx="64.047" cy="52" r="2.063"/>
<circle fill="#ED1E79" cx="60.439" cy="59.792" r="2.063"/>
</svg>
