<?xml version="1.0" encoding="utf-8"?>
<!-- Generator: Adobe Illustrator 15.0.0, SVG Export Plug-In . SVG Version: 6.00 Build 0)  -->
<!DOCTYPE svg PUBLIC "-//W3C//DTD SVG 1.1//EN" "http://www.w3.org/Graphics/SVG/1.1/DTD/svg11.dtd">
<svg version="1.1" id="Livello_1" xmlns="http://www.w3.org/2000/svg" xmlns:xlink="http://www.w3.org/1999/xlink" x="0px" y="0px"
	 width="64px" height="64px" viewBox="0 0 64 64" enable-background="new 0 0 64 64" xml:space="preserve">
<circle fill="#EAAE96" cx="-11.702" cy="4.499" r="2.063"/>
<rect x="72.714" y="60" fill="none" stroke="#000000" stroke-width="0.25" stroke-miterlimit="10" width="12.12" height="4"/>
<rect x="72.714" y="51.999" fill="none" stroke="#000000" stroke-width="0.25" stroke-miterlimit="10" width="12.12" height="8.001"/>
<rect x="72.714" y="44" fill="none" stroke="#000000" stroke-width="0.25" stroke-miterlimit="10" width="12.12" height="8"/>
<rect x="72.714" y="35.999" fill="none" stroke="#000000" stroke-width="0.25" stroke-miterlimit="10" width="12.12" height="8.001"/>
<rect x="72.714" y="27.999" fill="none" stroke="#000000" stroke-width="0.25" stroke-miterlimit="10" width="12.12" height="8.001"/>
<rect x="72.714" y="19.999" fill="none" stroke="#000000" stroke-width="0.25" stroke-miterlimit="10" width="12.12" height="8"/>
<rect x="72.714" y="11.999" fill="none" stroke="#000000" stroke-width="0.25" stroke-miterlimit="10" width="12.12" height="8"/>
<rect x="72.714" y="3.999" fill="none" stroke="#000000" stroke-width="0.25" stroke-miterlimit="10" width="12.12" height="8"/>
<rect x="72.714" fill="none" stroke="#000000" stroke-width="0.25" stroke-miterlimit="10" width="12.12" height="4"/>
<circle fill="none" stroke="#F9F8F7" stroke-width="1.5837" stroke-miterlimit="10" cx="-22.353" cy="32.001" r="9.502"/>
<path fill="none" stroke="#F9F8F7" stroke-width="0.75" stroke-miterlimit="10" d="M-27.189,40.214
	c-0.378-2.021,2.07-4.172,5.474-4.808c3.403-0.639,6.463,0.482,6.842,2.503"/>
<path fill="none" stroke="#F9F8F7" stroke-width="0.75" stroke-miterlimit="10" d="M-17.462,24.078
	c0.379,2.021-2.069,4.171-5.473,4.809c-3.404,0.637-6.464-0.482-6.843-2.503"/>
<g>
	<circle fill="#009245" cx="32" cy="32.001" r="9.502"/>
	<circle fill="#009245" cx="10.971" cy="32.001" r="9.502"/>
	<circle fill="#009245" cx="53.011" cy="32.001" r="9.501"/>
	<circle fill="#009245" cx="32" cy="53.285" r="9.502"/>
	<circle fill="#009245" cx="10.971" cy="53.285" r="9.502"/>
	<circle fill="#009245" cx="53.011" cy="53.285" r="9.501"/>
	<circle fill="#009245" cx="32" cy="10.885" r="9.502"/>
	<circle fill="#009245" cx="10.971" cy="10.885" r="9.502"/>
	<circle fill="#009245" cx="53.011" cy="10.885" r="9.501"/>
</g>
<circle fill="none" stroke="#009245" stroke-width="1.5837" stroke-miterlimit="10" cx="-51.565" cy="32.001" r="9.502"/>
<polygon fill="none" stroke="#009245" stroke-width="0.5" stroke-miterlimit="10" points="-53.469,35.299 -55.374,32 
	-53.469,28.702 -49.66,28.702 -47.756,32 -49.66,35.299 "/>
<polygon fill="none" stroke="#009245" stroke-width="0.5" stroke-miterlimit="10" points="-53.469,41.896 -55.374,38.598 
	-53.469,35.299 -49.66,35.299 -47.756,38.598 -49.66,41.896 "/>
<polygon fill="none" stroke="#009245" stroke-width="0.5" stroke-miterlimit="10" points="-47.775,32 -49.68,28.702 -47.775,25.403 
	-43.966,25.403 -42.062,28.702 -43.966,32 "/>
<polygon fill="none" stroke="#009245" stroke-width="0.5" stroke-miterlimit="10" points="-47.775,38.598 -49.68,35.299 -47.775,32 
	-43.966,32 -42.062,35.299 -43.966,38.598 "/>
<polygon fill="none" stroke="#009245" stroke-width="0.5" stroke-miterlimit="10" points="-59.164,38.598 -61.068,35.299 
	-59.164,32 -55.354,32 -53.45,35.299 -55.354,38.598 "/>
<polygon fill="none" stroke="#009245" stroke-width="0.5" stroke-miterlimit="10" points="-59.164,32 -61.068,28.701 
	-59.164,25.403 -55.354,25.403 -53.45,28.701 -55.354,32 "/>
<polygon fill="none" stroke="#009245" stroke-width="0.5" stroke-miterlimit="10" points="-53.469,28.701 -55.374,25.402 
	-53.469,22.104 -49.66,22.104 -47.756,25.402 -49.66,28.701 "/>
<circle fill="none" stroke="#009245" stroke-width="1.5837" stroke-miterlimit="10" cx="-72.593" cy="32.001" r="9.502"/>
<polygon fill="none" stroke="#009245" stroke-width="0.5" stroke-miterlimit="10" points="-74.498,35.299 -76.402,32 
	-74.498,28.702 -70.688,28.702 -68.784,32 -70.688,35.299 "/>
<polygon fill="none" stroke="#009245" stroke-width="0.5" stroke-miterlimit="10" points="-74.498,41.896 -76.402,38.598 
	-74.498,35.299 -70.688,35.299 -68.784,38.598 -70.688,41.896 "/>
<polygon fill="none" stroke="#009245" stroke-width="0.5" stroke-miterlimit="10" points="-68.804,32 -70.708,28.702 
	-68.804,25.403 -64.994,25.403 -63.09,28.702 -64.994,32 "/>
<polygon fill="none" stroke="#009245" stroke-width="0.5" stroke-miterlimit="10" points="-68.804,38.598 -70.708,35.299 
	-68.804,32 -64.994,32 -63.09,35.299 -64.994,38.598 "/>
<polygon fill="none" stroke="#009245" stroke-width="0.5" stroke-miterlimit="10" points="-80.192,38.598 -82.096,35.299 
	-80.192,32 -76.382,32 -74.478,35.299 -76.382,38.598 "/>
<polygon fill="none" stroke="#009245" stroke-width="0.5" stroke-miterlimit="10" points="-80.192,32 -82.096,28.701 
	-80.192,25.403 -76.382,25.403 -74.478,28.701 -76.382,32 "/>
<polygon fill="none" stroke="#009245" stroke-width="0.5" stroke-miterlimit="10" points="-74.498,28.701 -76.402,25.402 
	-74.498,22.104 -70.688,22.104 -68.784,25.402 -70.688,28.701 "/>
<circle fill="none" stroke="#009245" stroke-width="1.5837" stroke-miterlimit="10" cx="-30.554" cy="32.001" r="9.501"/>
<polygon fill="none" stroke="#009245" stroke-width="0.5" stroke-miterlimit="10" points="-32.458,35.299 -34.363,32 
	-32.458,28.702 -28.648,28.702 -26.744,32 -28.648,35.299 "/>
<polygon fill="none" stroke="#009245" stroke-width="0.5" stroke-miterlimit="10" points="-32.458,41.896 -34.363,38.598 
	-32.458,35.299 -28.648,35.299 -26.744,38.598 -28.648,41.896 "/>
<polygon fill="none" stroke="#009245" stroke-width="0.5" stroke-miterlimit="10" points="-26.764,32 -28.668,28.702 
	-26.764,25.403 -22.955,25.403 -21.051,28.702 -22.955,32 "/>
<polygon fill="none" stroke="#009245" stroke-width="0.5" stroke-miterlimit="10" points="-26.764,38.598 -28.668,35.299 
	-26.764,32 -22.955,32 -21.051,35.299 -22.955,38.598 "/>
<polygon fill="none" stroke="#009245" stroke-width="0.5" stroke-miterlimit="10" points="-38.152,38.598 -40.057,35.299 
	-38.152,32 -34.343,32 -32.438,35.299 -34.343,38.598 "/>
<polygon fill="none" stroke="#009245" stroke-width="0.5" stroke-miterlimit="10" points="-38.152,32 -40.057,28.701 
	-38.152,25.403 -34.343,25.403 -32.438,28.701 -34.343,32 "/>
<polygon fill="none" stroke="#009245" stroke-width="0.5" stroke-miterlimit="10" points="-32.458,28.701 -34.362,25.402 
	-32.458,22.104 -28.648,22.104 -26.744,25.402 -28.648,28.701 "/>
<circle fill="none" stroke="#009245" stroke-width="1.5837" stroke-miterlimit="10" cx="-51.565" cy="53.285" r="9.502"/>
<polygon fill="none" stroke="#009245" stroke-width="0.5" stroke-miterlimit="10" points="-53.469,56.584 -55.374,53.285 
	-53.469,49.986 -49.66,49.986 -47.756,53.285 -49.66,56.584 "/>
<polygon fill="none" stroke="#009245" stroke-width="0.5" stroke-miterlimit="10" points="-53.469,63.182 -55.374,59.883 
	-53.469,56.584 -49.66,56.584 -47.756,59.883 -49.66,63.182 "/>
<polygon fill="none" stroke="#009245" stroke-width="0.5" stroke-miterlimit="10" points="-47.775,53.285 -49.68,49.986 
	-47.775,46.688 -43.966,46.688 -42.062,49.986 -43.966,53.285 "/>
<polygon fill="none" stroke="#009245" stroke-width="0.5" stroke-miterlimit="10" points="-47.775,59.883 -49.68,56.584 
	-47.775,53.285 -43.966,53.285 -42.062,56.584 -43.966,59.883 "/>
<polygon fill="none" stroke="#009245" stroke-width="0.5" stroke-miterlimit="10" points="-59.164,59.883 -61.068,56.584 
	-59.164,53.285 -55.354,53.285 -53.45,56.584 -55.354,59.883 "/>
<polygon fill="none" stroke="#009245" stroke-width="0.5" stroke-miterlimit="10" points="-59.164,53.285 -61.068,49.986 
	-59.164,46.688 -55.354,46.688 -53.45,49.986 -55.354,53.285 "/>
<polygon fill="none" stroke="#009245" stroke-width="0.5" stroke-miterlimit="10" points="-53.469,49.986 -55.374,46.688 
	-53.469,43.389 -49.66,43.389 -47.756,46.688 -49.66,49.986 "/>
<circle fill="none" stroke="#009245" stroke-width="1.5837" stroke-miterlimit="10" cx="-72.593" cy="53.285" r="9.502"/>
<polygon fill="none" stroke="#009245" stroke-width="0.5" stroke-miterlimit="10" points="-74.498,56.584 -76.402,53.285 
	-74.498,49.986 -70.688,49.986 -68.784,53.285 -70.688,56.584 "/>
<polygon fill="none" stroke="#009245" stroke-width="0.5" stroke-miterlimit="10" points="-74.498,63.182 -76.402,59.883 
	-74.498,56.584 -70.688,56.584 -68.784,59.883 -70.688,63.182 "/>
<polygon fill="none" stroke="#009245" stroke-width="0.5" stroke-miterlimit="10" points="-68.804,53.285 -70.708,49.986 
	-68.804,46.688 -64.994,46.688 -63.09,49.986 -64.994,53.285 "/>
<polygon fill="none" stroke="#009245" stroke-width="0.5" stroke-miterlimit="10" points="-68.804,59.883 -70.708,56.584 
	-68.804,53.285 -64.994,53.285 -63.09,56.584 -64.994,59.883 "/>
<polygon fill="none" stroke="#009245" stroke-width="0.5" stroke-miterlimit="10" points="-80.192,59.883 -82.096,56.584 
	-80.192,53.285 -76.382,53.285 -74.478,56.584 -76.382,59.883 "/>
<polygon fill="none" stroke="#009245" stroke-width="0.5" stroke-miterlimit="10" points="-80.192,53.285 -82.096,49.986 
	-80.192,46.688 -76.382,46.688 -74.478,49.986 -76.382,53.285 "/>
<polygon fill="none" stroke="#009245" stroke-width="0.5" stroke-miterlimit="10" points="-74.498,49.986 -76.402,46.688 
	-74.498,43.389 -70.688,43.389 -68.784,46.688 -70.688,49.986 "/>
<circle fill="none" stroke="#009245" stroke-width="1.5837" stroke-miterlimit="10" cx="-30.554" cy="53.285" r="9.501"/>
<polygon fill="none" stroke="#009245" stroke-width="0.5" stroke-miterlimit="10" points="-32.458,56.584 -34.363,53.285 
	-32.458,49.986 -28.648,49.986 -26.744,53.285 -28.648,56.584 "/>
<polygon fill="none" stroke="#009245" stroke-width="0.5" stroke-miterlimit="10" points="-32.458,63.182 -34.363,59.883 
	-32.458,56.584 -28.648,56.584 -26.744,59.883 -28.648,63.182 "/>
<polygon fill="none" stroke="#009245" stroke-width="0.5" stroke-miterlimit="10" points="-26.764,53.285 -28.668,49.986 
	-26.764,46.688 -22.955,46.688 -21.051,49.986 -22.955,53.285 "/>
<polygon fill="none" stroke="#009245" stroke-width="0.5" stroke-miterlimit="10" points="-26.764,59.883 -28.668,56.584 
	-26.764,53.285 -22.955,53.285 -21.051,56.584 -22.955,59.883 "/>
<polygon fill="none" stroke="#009245" stroke-width="0.5" stroke-miterlimit="10" points="-38.152,59.883 -40.057,56.584 
	-38.152,53.285 -34.343,53.285 -32.438,56.584 -34.343,59.883 "/>
<polygon fill="none" stroke="#009245" stroke-width="0.5" stroke-miterlimit="10" points="-38.152,53.285 -40.057,49.986 
	-38.152,46.688 -34.343,46.688 -32.438,49.986 -34.343,53.285 "/>
<polygon fill="none" stroke="#009245" stroke-width="0.5" stroke-miterlimit="10" points="-32.458,49.986 -34.362,46.688 
	-32.458,43.389 -28.648,43.389 -26.744,46.688 -28.648,49.986 "/>
<circle fill="none" stroke="#009245" stroke-width="1.5837" stroke-miterlimit="10" cx="-51.565" cy="10.885" r="9.502"/>
<polygon fill="none" stroke="#009245" stroke-width="0.5" stroke-miterlimit="10" points="-53.469,14.183 -55.374,10.885 
	-53.469,7.586 -49.66,7.586 -47.756,10.885 -49.66,14.183 "/>
<polygon fill="none" stroke="#009245" stroke-width="0.5" stroke-miterlimit="10" points="-53.469,20.781 -55.374,17.482 
	-53.469,14.183 -49.66,14.183 -47.756,17.482 -49.66,20.781 "/>
<polygon fill="none" stroke="#009245" stroke-width="0.5" stroke-miterlimit="10" points="-47.775,10.884 -49.68,7.586 
	-47.775,4.287 -43.966,4.287 -42.062,7.586 -43.966,10.884 "/>
<polygon fill="none" stroke="#009245" stroke-width="0.5" stroke-miterlimit="10" points="-47.775,17.482 -49.68,14.183 
	-47.775,10.885 -43.966,10.885 -42.062,14.183 -43.966,17.482 "/>
<polygon fill="none" stroke="#009245" stroke-width="0.5" stroke-miterlimit="10" points="-59.164,17.482 -61.068,14.183 
	-59.164,10.885 -55.354,10.885 -53.45,14.183 -55.354,17.482 "/>
<polygon fill="none" stroke="#009245" stroke-width="0.5" stroke-miterlimit="10" points="-59.164,10.884 -61.068,7.585 
	-59.164,4.287 -55.354,4.287 -53.45,7.585 -55.354,10.884 "/>
<polygon fill="none" stroke="#009245" stroke-width="0.5" stroke-miterlimit="10" points="-53.469,7.585 -55.374,4.287 
	-53.469,0.988 -49.66,0.988 -47.756,4.287 -49.66,7.585 "/>
<circle fill="none" stroke="#009245" stroke-width="1.5837" stroke-miterlimit="10" cx="-72.593" cy="10.885" r="9.502"/>
<polygon fill="none" stroke="#009245" stroke-width="0.5" stroke-miterlimit="10" points="-74.498,14.183 -76.402,10.885 
	-74.498,7.586 -70.688,7.586 -68.784,10.885 -70.688,14.183 "/>
<polygon fill="none" stroke="#009245" stroke-width="0.5" stroke-miterlimit="10" points="-74.498,20.781 -76.402,17.482 
	-74.498,14.183 -70.688,14.183 -68.784,17.482 -70.688,20.781 "/>
<polygon fill="none" stroke="#009245" stroke-width="0.5" stroke-miterlimit="10" points="-68.804,10.884 -70.708,7.586 
	-68.804,4.287 -64.994,4.287 -63.09,7.586 -64.994,10.884 "/>
<polygon fill="none" stroke="#009245" stroke-width="0.5" stroke-miterlimit="10" points="-68.804,17.482 -70.708,14.183 
	-68.804,10.885 -64.994,10.885 -63.09,14.183 -64.994,17.482 "/>
<polygon fill="none" stroke="#009245" stroke-width="0.5" stroke-miterlimit="10" points="-80.192,17.482 -82.096,14.183 
	-80.192,10.885 -76.382,10.885 -74.478,14.183 -76.382,17.482 "/>
<polygon fill="none" stroke="#009245" stroke-width="0.5" stroke-miterlimit="10" points="-80.192,10.884 -82.096,7.585 
	-80.192,4.287 -76.382,4.287 -74.478,7.585 -76.382,10.884 "/>
<polygon fill="none" stroke="#009245" stroke-width="0.5" stroke-miterlimit="10" points="-74.498,7.585 -76.402,4.287 
	-74.498,0.988 -70.688,0.988 -68.784,4.287 -70.688,7.585 "/>
<circle fill="none" stroke="#009245" stroke-width="1.5837" stroke-miterlimit="10" cx="-30.554" cy="10.885" r="9.501"/>
<polygon fill="none" stroke="#009245" stroke-width="0.5" stroke-miterlimit="10" points="-32.458,14.183 -34.363,10.885 
	-32.458,7.586 -28.648,7.586 -26.744,10.885 -28.648,14.183 "/>
<polygon fill="none" stroke="#009245" stroke-width="0.5" stroke-miterlimit="10" points="-32.458,20.781 -34.363,17.482 
	-32.458,14.183 -28.648,14.183 -26.744,17.482 -28.648,20.781 "/>
<polygon fill="none" stroke="#009245" stroke-width="0.5" stroke-miterlimit="10" points="-26.764,10.884 -28.668,7.586 
	-26.764,4.287 -22.955,4.287 -21.051,7.586 -22.955,10.884 "/>
<polygon fill="none" stroke="#009245" stroke-width="0.5" stroke-miterlimit="10" points="-26.764,17.482 -28.668,14.183 
	-26.764,10.885 -22.955,10.885 -21.051,14.183 -22.955,17.482 "/>
<polygon fill="none" stroke="#009245" stroke-width="0.5" stroke-miterlimit="10" points="-38.152,17.482 -40.057,14.183 
	-38.152,10.885 -34.343,10.885 -32.438,14.183 -34.343,17.482 "/>
<polygon fill="none" stroke="#009245" stroke-width="0.5" stroke-miterlimit="10" points="-38.152,10.884 -40.057,7.585 
	-38.152,4.287 -34.343,4.287 -32.438,7.585 -34.343,10.884 "/>
<polygon fill="none" stroke="#009245" stroke-width="0.5" stroke-miterlimit="10" points="-32.458,7.585 -34.362,4.287 
	-32.458,0.988 -28.648,0.988 -26.744,4.287 -28.648,7.585 "/>
</svg>
