<?xml version="1.0" encoding="utf-8"?>
<!-- Generator: Adobe Illustrator 15.0.0, SVG Export Plug-In . SVG Version: 6.00 Build 0)  -->
<!DOCTYPE svg PUBLIC "-//W3C//DTD SVG 1.1//EN" "http://www.w3.org/Graphics/SVG/1.1/DTD/svg11.dtd">
<svg version="1.1" id="Livello_1" xmlns="http://www.w3.org/2000/svg" xmlns:xlink="http://www.w3.org/1999/xlink" x="0px" y="0px"
	 width="64px" height="64px" viewBox="0 0 64 64" enable-background="new 0 0 64 64" xml:space="preserve">
<path fill="#FFFFFF" stroke="#FF0000" stroke-width="0.732" stroke-miterlimit="10" d="M8.29,48.044V31.839
	c0,0,0.009-0.042,0.038-0.127c0.029-0.086,0.146-0.393,0.196-0.499c0.051-0.107,0.13-0.274,0.215-0.409
	c0.085-0.136,0.22-0.327,0.333-0.472c0.113-0.145,0.488-0.628,0.488-0.628l0.729-0.931l0.814-1.027l4.022-4.9
	c0,0,0.694-0.808,0.968-1.117c0.274-0.311,1.231-1.365,1.441-1.585c0.211-0.22,0.599-0.624,0.844-0.856
	c0.245-0.233,0.67-0.622,0.848-0.757c0.178-0.134,0.447-0.307,0.447-0.307l0.659-0.384l16.395-9.563l0.33-0.184
	c0,0,0.197-0.097,0.284-0.097c0.089,0,0.331,0.114,0.331,0.114s0.354,0.218,0.496,0.345c0.145,0.126,0.827,0.75,0.827,0.75
	l2.634,2.843l2.139,2.441l4.254,5.403l0.418,0.548c0,0,0.135,0.156,0.252,0.393c0.119,0.237,0.274,0.623,0.274,0.623l0.089,0.271
	v16.205L31.718,48.044H8.29z"/>
<path fill="#FF0000" d="M37.343,7.997c1.538,0,11.089,12.422,11.089,12.422c0.45,0.628,0.625,1.306,0.625,1.306V37.93H37.343H25.628
	V21.726c0,0,0.175-0.678,0.626-1.306C26.254,20.419,35.805,7.997,37.343,7.997z"/>
<line fill="none" stroke="#FF0000" stroke-width="0.8366" stroke-miterlimit="10" x1="20.004" y1="18.11" x2="20.004" y2="9.857"/>
<polygon fill="#FF0000" points="19.032,10.485 19.032,14.215 12.27,14.215 14.849,12.35 12.27,10.485 "/>
<path fill="none" stroke="#FF0000" stroke-width="0.5229" stroke-miterlimit="10" d="M19.472,18.356c0,0,0.266-0.246,0.532-0.246
	s0.621,0.301,0.776,0.419c0.156,0.12,0.749,0.65,0.949,0.855c0.2,0.206,2.329,2.503,2.687,2.919s6.127,7.521,6.127,7.521
	s0.463,0.583,0.587,0.763s0.313,0.503,0.413,0.759c0.099,0.256,0.174,0.492,0.174,0.492v16.205"/>
<polyline fill="none" stroke="#FFFFFF" stroke-width="0.5229" stroke-miterlimit="10" points="25.628,23.781 30.807,30.159 
	31.016,30.431 31.285,30.832 31.436,31.107 31.544,31.347 31.638,31.602 31.718,31.839 31.718,37.932 "/>
<g>
	<path fill="#FF0000" d="M18.149,44.645c0,0,0.625,2.127,1.76-1.498c0.653-2.084,0.619-6.594,0.619-6.594h-2.379H15.77
		c0,0-0.033,4.51,0.619,6.594C17.523,46.771,18.149,44.645,18.149,44.645z"/>
	<path fill="#FF0000" d="M17.597,35.852h-2.366v1.308c0,0-0.079,0.235-0.236,0.235c-0.157,0-0.288-0.262-0.288-0.262v-1.699
		c0,0,0.013-6.615,0.641-6.929s2.249-0.633,2.249-0.633V35.852z"/>
	<path fill="#FF0000" d="M18.632,35.852h2.366v1.308c0,0,0.078,0.235,0.235,0.235c0.157,0,0.288-0.262,0.288-0.262v-1.699
		c0,0-0.013-6.615-0.641-6.929s-2.248-0.633-2.248-0.633V35.852z"/>
	<circle fill="#FF0000" cx="18.148" cy="25.455" r="1.673"/>
</g>
<g>
	<path fill="#FFFFFF" d="M37.376,41.664c0,0,0.626,2.126,1.761-1.499c0.652-2.083,0.619-6.595,0.619-6.595h-2.38h-2.379
		c0,0-0.033,4.512,0.619,6.595C36.751,43.79,37.376,41.664,37.376,41.664z"/>
	<path fill="#FFFFFF" d="M36.825,32.87h-2.366v1.308c0,0-0.078,0.236-0.234,0.236s-0.287-0.262-0.287-0.262v-1.7
		c0,0,0.013-6.615,0.64-6.928c0.628-0.313,2.249-0.633,2.249-0.633L36.825,32.87L36.825,32.87z"/>
	<path fill="#FFFFFF" d="M37.859,32.87h2.365v1.308c0,0,0.08,0.236,0.235,0.236c0.157,0,0.288-0.262,0.288-0.262v-1.7
		c0,0-0.014-6.615-0.641-6.928s-2.25-0.633-2.25-0.633v7.979H37.859z"/>
	<circle fill="#FFFFFF" cx="37.376" cy="22.474" r="1.673"/>
	<path fill="#FF0000" d="M35.207,37.932c0.091,0.836,0.223,1.635,0.409,2.233c1.135,3.625,1.76,1.499,1.76,1.499
		s0.626,2.126,1.761-1.499c0.188-0.599,0.319-1.397,0.41-2.233"/>
</g>
<g>
	<path fill="#FF0000" d="M52.337,55.387c0,0,0.627,2.125,1.763-1.5c0.65-2.082,0.617-6.594,0.617-6.594h-2.38h-2.378
		c0,0-0.034,4.512,0.618,6.594C51.712,57.512,52.337,55.387,52.337,55.387z"/>
	<path fill="#FF0000" d="M51.786,46.594H49.42V47.9c0,0-0.078,0.234-0.234,0.234c-0.158,0-0.287-0.262-0.287-0.262v-1.699
		c0,0,0.013-6.615,0.64-6.928c0.629-0.314,2.249-0.633,2.249-0.633L51.786,46.594L51.786,46.594z"/>
	<path fill="#FF0000" d="M52.82,46.594h2.365V47.9c0,0,0.08,0.234,0.236,0.234c0.157,0,0.287-0.262,0.287-0.262v-1.699
		c0,0-0.014-6.615-0.641-6.928c-0.627-0.314-2.25-0.633-2.25-0.633v7.98H52.82z"/>
	<circle fill="#FF0000" cx="52.338" cy="36.196" r="1.673"/>
</g>
</svg>
