<?xml version="1.0" encoding="utf-8"?>
<!-- Generator: Adobe Illustrator 15.0.0, SVG Export Plug-In . SVG Version: 6.00 Build 0)  -->
<!DOCTYPE svg PUBLIC "-//W3C//DTD SVG 1.1//EN" "http://www.w3.org/Graphics/SVG/1.1/DTD/svg11.dtd">
<svg version="1.1" id="Livello_1" xmlns="http://www.w3.org/2000/svg" xmlns:xlink="http://www.w3.org/1999/xlink" x="0px" y="0px"
	 width="64px" height="64px" viewBox="0 0 64 64" enable-background="new 0 0 64 64" xml:space="preserve">
<circle fill="#EAAE96" cx="-11.702" cy="4.499" r="2.063"/>
<rect x="72.714" y="60" fill="none" stroke="#000000" stroke-width="0.25" stroke-miterlimit="10" width="12.12" height="4"/>
<rect x="72.714" y="51.999" fill="none" stroke="#000000" stroke-width="0.25" stroke-miterlimit="10" width="12.12" height="8.001"/>
<rect x="72.714" y="44" fill="none" stroke="#000000" stroke-width="0.25" stroke-miterlimit="10" width="12.12" height="8"/>
<rect x="72.714" y="35.999" fill="none" stroke="#000000" stroke-width="0.25" stroke-miterlimit="10" width="12.12" height="8.001"/>
<rect x="72.714" y="27.999" fill="none" stroke="#000000" stroke-width="0.25" stroke-miterlimit="10" width="12.12" height="8.001"/>
<rect x="72.714" y="19.999" fill="none" stroke="#000000" stroke-width="0.25" stroke-miterlimit="10" width="12.12" height="8"/>
<rect x="72.714" y="11.999" fill="none" stroke="#000000" stroke-width="0.25" stroke-miterlimit="10" width="12.12" height="8"/>
<rect x="72.714" y="3.999" fill="none" stroke="#000000" stroke-width="0.25" stroke-miterlimit="10" width="12.12" height="8"/>
<rect x="72.714" fill="none" stroke="#000000" stroke-width="0.25" stroke-miterlimit="10" width="12.12" height="4"/>
<rect x="5.295" y="2.081" transform="matrix(0.7071 0.7071 -0.7071 0.7071 4.94 -3.9291)" fill="#EAAE96" width="3.836" height="3.836"/>
<rect x="-1.87" y="2.081" transform="matrix(0.7071 0.7071 -0.7071 0.7071 2.8414 1.1373)" fill="#EAAE96" width="3.836" height="3.836"/>
<rect x="12.368" y="2.081" transform="matrix(0.7071 0.7071 -0.7071 0.7071 7.0117 -8.9307)" fill="#EAAE96" width="3.836" height="3.836"/>
<rect x="19.467" y="2.081" transform="matrix(0.7071 0.7071 -0.7071 0.7071 9.0908 -13.9502)" fill="#EAAE96" width="3.836" height="3.836"/>
<rect x="26.587" y="2.081" transform="matrix(0.7071 0.7071 -0.7071 0.7071 11.1763 -18.9849)" fill="#EAAE96" width="3.836" height="3.836"/>
<rect x="33.686" y="2.08" transform="matrix(0.7072 0.707 -0.707 0.7072 13.2532 -24.003)" fill="#EAAE96" width="3.836" height="3.836"/>
<rect x="40.856" y="2.08" transform="matrix(0.7072 0.707 -0.707 0.7072 15.3528 -29.0725)" fill="#EAAE96" width="3.836" height="3.836"/>
<rect x="47.956" y="2.08" transform="matrix(0.7072 0.707 -0.707 0.7072 17.4317 -34.0922)" fill="#EAAE96" width="3.836" height="3.836"/>
<rect x="55.027" y="2.08" transform="matrix(0.7072 0.707 -0.707 0.7072 19.5024 -39.0919)" fill="#EAAE96" width="3.836" height="3.836"/>
<rect x="62.177" y="2.08" transform="matrix(0.7072 0.707 -0.707 0.7072 21.596 -44.1469)" fill="#EAAE96" width="3.836" height="3.836"/>
<rect x="8.828" y="10.081" transform="matrix(0.7071 0.7071 -0.7071 0.7071 11.632 -4.0842)" fill="#EAAE96" width="3.836" height="3.836"/>
<rect x="1.663" y="10.081" transform="matrix(0.7071 0.7071 -0.7071 0.7071 9.5335 0.9822)" fill="#EAAE96" width="3.836" height="3.836"/>
<rect x="15.901" y="10.081" transform="matrix(0.7071 0.7071 -0.7071 0.7071 13.7038 -9.0857)" fill="#EAAE96" width="3.836" height="3.836"/>
<rect x="23" y="10.081" transform="matrix(0.7071 0.7071 -0.7071 0.7071 15.7829 -14.1052)" fill="#EAAE96" width="3.836" height="3.836"/>
<rect x="30.12" y="10.081" transform="matrix(0.7071 0.7071 -0.7071 0.7071 17.8683 -19.1399)" fill="#EAAE96" width="3.836" height="3.836"/>
<rect x="37.22" y="10.081" transform="matrix(0.7072 0.707 -0.707 0.7072 19.9445 -24.1584)" fill="#EAAE96" width="3.836" height="3.836"/>
<rect x="44.389" y="10.081" transform="matrix(0.7072 0.707 -0.707 0.7072 22.0441 -29.2278)" fill="#EAAE96" width="3.836" height="3.836"/>
<rect x="51.489" y="10.081" transform="matrix(0.7072 0.707 -0.707 0.7072 24.123 -34.2475)" fill="#EAAE96" width="3.836" height="3.836"/>
<rect x="58.56" y="10.081" transform="matrix(0.7072 0.707 -0.707 0.7072 26.1937 -39.2473)" fill="#EAAE96" width="3.836" height="3.836"/>
<rect x="65.71" y="10.081" transform="matrix(0.7072 0.707 -0.707 0.7072 28.2873 -44.3022)" fill="#EAAE96" width="3.836" height="3.836"/>
<rect x="8.828" y="26.081" transform="matrix(0.7071 0.7071 -0.7071 0.7071 22.9458 0.6021)" fill="#EAAE96" width="3.836" height="3.836"/>
<rect x="1.663" y="26.081" transform="matrix(0.7071 0.7071 -0.7071 0.7071 20.8472 5.6685)" fill="#EAAE96" width="3.836" height="3.836"/>
<rect x="15.901" y="26.081" transform="matrix(0.7071 0.7071 -0.7071 0.7071 25.0175 -4.3994)" fill="#EAAE96" width="3.836" height="3.836"/>
<rect x="23" y="26.081" transform="matrix(0.7071 0.7071 -0.7071 0.7071 27.0966 -9.4189)" fill="#EAAE96" width="3.836" height="3.836"/>
<rect x="30.12" y="26.081" transform="matrix(0.7071 0.7071 -0.7071 0.7071 29.182 -14.4536)" fill="#EAAE96" width="3.836" height="3.836"/>
<rect x="37.22" y="26.081" transform="matrix(0.7072 0.707 -0.707 0.7072 31.2572 -19.4731)" fill="#EAAE96" width="3.836" height="3.836"/>
<rect x="44.389" y="26.081" transform="matrix(0.7072 0.707 -0.707 0.7072 33.3568 -24.5425)" fill="#EAAE96" width="3.836" height="3.836"/>
<rect x="51.489" y="26.081" transform="matrix(0.7072 0.707 -0.707 0.7072 35.4357 -29.5623)" fill="#EAAE96" width="3.836" height="3.836"/>
<rect x="58.56" y="26.081" transform="matrix(0.7072 0.707 -0.707 0.7072 37.5064 -34.562)" fill="#EAAE96" width="3.836" height="3.836"/>
<rect x="65.71" y="26.081" transform="matrix(0.7072 0.707 -0.707 0.7072 39.6 -39.6169)" fill="#EAAE96" width="3.836" height="3.836"/>
<rect x="8.828" y="42.082" transform="matrix(0.707 0.7072 -0.7072 0.707 34.2636 5.2908)" fill="#EAAE96" width="3.836" height="3.836"/>
<rect x="1.663" y="42.082" transform="matrix(0.707 0.7072 -0.7072 0.707 32.1646 10.3577)" fill="#EAAE96" width="3.836" height="3.836"/>
<rect x="15.901" y="42.082" transform="matrix(0.707 0.7072 -0.7072 0.707 36.3358 0.2888)" fill="#EAAE96" width="3.836" height="3.836"/>
<rect x="23" y="42.082" transform="matrix(0.707 0.7072 -0.7072 0.707 38.4154 -4.7311)" fill="#EAAE96" width="3.836" height="3.836"/>
<rect x="30.12" y="42.082" transform="matrix(0.707 0.7072 -0.7072 0.707 40.5013 -9.7663)" fill="#EAAE96" width="3.836" height="3.836"/>
<rect x="37.219" y="42.082" transform="matrix(0.7071 0.7071 -0.7071 0.7071 42.5759 -14.7872)" fill="#EAAE96" width="3.837" height="3.837"/>
<rect x="44.389" y="42.082" transform="matrix(0.7071 0.7071 -0.7071 0.7071 44.6759 -19.8571)" fill="#EAAE96" width="3.837" height="3.837"/>
<rect x="51.489" y="42.082" transform="matrix(0.7071 0.7071 -0.7071 0.7071 46.7553 -24.8773)" fill="#EAAE96" width="3.837" height="3.837"/>
<rect x="58.56" y="42.082" transform="matrix(0.7071 0.7071 -0.7071 0.7071 48.8264 -29.8775)" fill="#EAAE96" width="3.837" height="3.837"/>
<rect x="65.71" y="42.082" transform="matrix(0.7071 0.7071 -0.7071 0.7071 50.9205 -34.9329)" fill="#EAAE96" width="3.837" height="3.837"/>
<rect x="8.828" y="58.082" transform="matrix(0.707 0.7072 -0.7072 0.707 45.5784 9.9781)" fill="#EAAE96" width="3.836" height="3.836"/>
<rect x="1.663" y="58.082" transform="matrix(0.707 0.7072 -0.7072 0.707 43.4793 15.045)" fill="#EAAE96" width="3.836" height="3.836"/>
<rect x="15.901" y="58.082" transform="matrix(0.707 0.7072 -0.7072 0.707 47.6505 4.9761)" fill="#EAAE96" width="3.836" height="3.836"/>
<rect x="23" y="58.082" transform="matrix(0.707 0.7072 -0.7072 0.707 49.7301 -0.0438)" fill="#EAAE96" width="3.836" height="3.836"/>
<rect x="30.12" y="58.082" transform="matrix(0.707 0.7072 -0.7072 0.707 51.816 -5.079)" fill="#EAAE96" width="3.836" height="3.836"/>
<rect x="37.219" y="58.082" transform="matrix(0.7071 0.7071 -0.7071 0.7071 53.8896 -10.1009)" fill="#EAAE96" width="3.837" height="3.837"/>
<rect x="44.389" y="58.082" transform="matrix(0.7071 0.7071 -0.7071 0.7071 55.9896 -15.1708)" fill="#EAAE96" width="3.837" height="3.837"/>
<rect x="51.489" y="58.082" transform="matrix(0.7071 0.7071 -0.7071 0.7071 58.069 -20.191)" fill="#EAAE96" width="3.837" height="3.837"/>
<rect x="58.56" y="58.082" transform="matrix(0.7071 0.7071 -0.7071 0.7071 60.1402 -25.1912)" fill="#EAAE96" width="3.837" height="3.837"/>
<rect x="65.71" y="58.082" transform="matrix(0.7071 0.7071 -0.7071 0.7071 62.2342 -30.2466)" fill="#EAAE96" width="3.837" height="3.837"/>
<rect x="5.262" y="18.082" transform="matrix(0.7071 0.7071 -0.7071 0.7071 16.2447 0.7809)" fill="#EAAE96" width="3.836" height="3.836"/>
<rect x="-1.903" y="18.082" transform="matrix(0.7071 0.7071 -0.7071 0.7071 14.1461 5.8474)" fill="#EAAE96" width="3.836" height="3.836"/>
<rect x="12.335" y="18.082" transform="matrix(0.7071 0.7071 -0.7071 0.7071 18.3164 -4.2206)" fill="#EAAE96" width="3.836" height="3.836"/>
<rect x="19.434" y="18.082" transform="matrix(0.7071 0.7071 -0.7071 0.7071 20.3955 -9.2401)" fill="#EAAE96" width="3.836" height="3.836"/>
<rect x="26.554" y="18.082" transform="matrix(0.7071 0.7071 -0.7071 0.7071 22.481 -14.2748)" fill="#EAAE96" width="3.836" height="3.836"/>
<rect x="33.653" y="18.081" transform="matrix(0.7072 0.707 -0.707 0.7072 24.5568 -19.294)" fill="#EAAE96" width="3.836" height="3.836"/>
<rect x="40.823" y="18.081" transform="matrix(0.7072 0.707 -0.707 0.7072 26.6564 -24.3634)" fill="#EAAE96" width="3.836" height="3.836"/>
<rect x="47.923" y="18.081" transform="matrix(0.7072 0.707 -0.707 0.7072 28.7354 -29.3832)" fill="#EAAE96" width="3.836" height="3.836"/>
<rect x="54.994" y="18.081" transform="matrix(0.7072 0.707 -0.707 0.7072 30.8061 -34.3829)" fill="#EAAE96" width="3.836" height="3.836"/>
<rect x="62.143" y="18.081" transform="matrix(0.7072 0.707 -0.707 0.7072 32.8996 -39.4378)" fill="#EAAE96" width="3.836" height="3.836"/>
<rect x="5.262" y="34.081" transform="matrix(0.7072 0.707 -0.707 0.7072 27.5553 5.4652)" fill="#EAAE96" width="3.836" height="3.836"/>
<rect x="-1.903" y="34.081" transform="matrix(0.7072 0.707 -0.707 0.7072 25.4572 10.5312)" fill="#EAAE96" width="3.836" height="3.836"/>
<rect x="12.335" y="34.081" transform="matrix(0.7072 0.707 -0.707 0.7072 29.6265 0.4641)" fill="#EAAE96" width="3.836" height="3.836"/>
<rect x="19.434" y="34.081" transform="matrix(0.7072 0.707 -0.707 0.7072 31.7052 -4.5549)" fill="#EAAE96" width="3.836" height="3.836"/>
<rect x="26.554" y="34.081" transform="matrix(0.7072 0.707 -0.707 0.7072 33.7902 -9.5891)" fill="#EAAE96" width="3.836" height="3.836"/>
<rect x="33.653" y="34.081" transform="matrix(0.7072 0.707 -0.707 0.7072 35.8646 -14.6089)" fill="#EAAE96" width="3.836" height="3.836"/>
<rect x="40.823" y="34.081" transform="matrix(0.7072 0.707 -0.707 0.7072 37.9637 -19.6779)" fill="#EAAE96" width="3.836" height="3.836"/>
<rect x="47.923" y="34.081" transform="matrix(0.7072 0.707 -0.707 0.7072 40.0423 -24.6971)" fill="#EAAE96" width="3.836" height="3.836"/>
<rect x="54.994" y="34.081" transform="matrix(0.7072 0.707 -0.707 0.7072 42.1125 -29.6964)" fill="#EAAE96" width="3.836" height="3.836"/>
<rect x="62.144" y="34.081" transform="matrix(0.7072 0.707 -0.707 0.7072 44.2056 -34.7509)" fill="#EAAE96" width="3.836" height="3.836"/>
<rect x="5.262" y="50.081" transform="matrix(0.7072 0.707 -0.707 0.7072 38.868 10.1505)" fill="#EAAE96" width="3.836" height="3.836"/>
<rect x="-1.903" y="50.081" transform="matrix(0.7072 0.707 -0.707 0.7072 36.7698 15.2165)" fill="#EAAE96" width="3.836" height="3.836"/>
<rect x="12.335" y="50.081" transform="matrix(0.7072 0.707 -0.707 0.7072 40.9392 5.1494)" fill="#EAAE96" width="3.836" height="3.836"/>
<rect x="19.434" y="50.081" transform="matrix(0.7072 0.707 -0.707 0.7072 43.0179 0.1304)" fill="#EAAE96" width="3.836" height="3.836"/>
<rect x="26.554" y="50.081" transform="matrix(0.7072 0.707 -0.707 0.7072 45.1029 -4.9039)" fill="#EAAE96" width="3.836" height="3.836"/>
<rect x="33.653" y="50.081" transform="matrix(0.7072 0.707 -0.707 0.7072 47.1763 -9.9246)" fill="#EAAE96" width="3.836" height="3.836"/>
<rect x="40.823" y="50.081" transform="matrix(0.7072 0.707 -0.707 0.7072 49.2754 -14.9936)" fill="#EAAE96" width="3.836" height="3.836"/>
<rect x="47.923" y="50.081" transform="matrix(0.7072 0.707 -0.707 0.7072 51.3539 -20.0129)" fill="#EAAE96" width="3.836" height="3.836"/>
<rect x="54.994" y="50.081" transform="matrix(0.7072 0.707 -0.707 0.7072 53.4242 -25.0122)" fill="#EAAE96" width="3.836" height="3.836"/>
<rect x="62.144" y="50.081" transform="matrix(0.7072 0.707 -0.707 0.7072 55.5173 -30.0666)" fill="#EAAE96" width="3.836" height="3.836"/>
</svg>
