<?xml version="1.0" encoding="utf-8"?>
<!-- Generator: Adobe Illustrator 15.0.0, SVG Export Plug-In . SVG Version: 6.00 Build 0)  -->
<!DOCTYPE svg PUBLIC "-//W3C//DTD SVG 1.1//EN" "http://www.w3.org/Graphics/SVG/1.1/DTD/svg11.dtd">
<svg version="1.1" id="Livello_1" xmlns="http://www.w3.org/2000/svg" xmlns:xlink="http://www.w3.org/1999/xlink" x="0px" y="0px"
	 width="64px" height="64px" viewBox="0 0 64 64" enable-background="new 0 0 64 64" xml:space="preserve">
<circle fill="#231F20" cx="3.56" cy="3.56" r="1.918"/>
<circle fill="#231F20" cx="3.56" cy="10.681" r="1.98"/>
<circle fill="#231F20" cx="3.56" cy="17.801" r="2.063"/>
<circle fill="#231F20" cx="3.56" cy="24.922" r="2.063"/>
<circle fill="#231F20" cx="3.56" cy="32.042" r="2.063"/>
<circle fill="#231F20" cx="3.56" cy="39.163" r="2.063"/>
<circle fill="#231F20" cx="3.56" cy="46.283" r="2.063"/>
<circle fill="#231F20" cx="3.56" cy="53.404" r="2.063"/>
<circle fill="#231F20" cx="3.56" cy="60.525" r="2.063"/>
<circle fill="#231F20" cx="10.681" cy="3.56" r="1.918"/>
<circle fill="#231F20" cx="10.681" cy="10.681" r="1.98"/>
<circle fill="#231F20" cx="10.681" cy="17.801" r="2.063"/>
<circle fill="#231F20" cx="10.681" cy="24.922" r="2.063"/>
<circle fill="#231F20" cx="10.681" cy="32.042" r="2.063"/>
<circle fill="#231F20" cx="10.681" cy="39.163" r="2.063"/>
<circle fill="#231F20" cx="10.681" cy="46.283" r="2.063"/>
<circle fill="#231F20" cx="10.681" cy="53.404" r="2.063"/>
<circle fill="#231F20" cx="10.681" cy="60.525" r="2.063"/>
<circle fill="#231F20" cx="17.78" cy="3.56" r="1.918"/>
<circle fill="#231F20" cx="17.78" cy="10.681" r="1.98"/>
<circle fill="#231F20" cx="17.78" cy="17.801" r="2.063"/>
<circle fill="#231F20" cx="17.78" cy="24.922" r="2.063"/>
<circle fill="#231F20" cx="17.78" cy="32.042" r="2.063"/>
<circle fill="#231F20" cx="17.78" cy="39.163" r="2.063"/>
<circle fill="#231F20" cx="17.78" cy="46.283" r="2.063"/>
<circle fill="#231F20" cx="17.78" cy="53.404" r="2.063"/>
<circle fill="#231F20" cx="17.78" cy="60.525" r="2.063"/>
<circle fill="#231F20" cx="24.9" cy="3.56" r="1.918"/>
<circle fill="#231F20" cx="24.9" cy="10.681" r="1.98"/>
<circle fill="#231F20" cx="24.9" cy="17.801" r="2.063"/>
<circle fill="#231F20" cx="24.9" cy="24.922" r="2.063"/>
<circle fill="#231F20" cx="24.9" cy="32.042" r="2.063"/>
<circle fill="#231F20" cx="24.9" cy="39.163" r="2.063"/>
<circle fill="#231F20" cx="24.9" cy="46.283" r="2.063"/>
<circle fill="#231F20" cx="24.9" cy="53.404" r="2.063"/>
<circle fill="#231F20" cx="24.9" cy="60.525" r="2.063"/>
<circle fill="#231F20" cx="32" cy="3.56" r="1.918"/>
<circle fill="#231F20" cx="32" cy="10.681" r="1.98"/>
<circle fill="#231F20" cx="32" cy="17.801" r="2.063"/>
<circle fill="#231F20" cx="32" cy="24.922" r="2.063"/>
<circle fill="#231F20" cx="32" cy="32.042" r="2.063"/>
<circle fill="#231F20" cx="32" cy="39.163" r="2.063"/>
<circle fill="#231F20" cx="32" cy="46.283" r="2.063"/>
<circle fill="#231F20" cx="32" cy="53.404" r="2.063"/>
<circle fill="#231F20" cx="32" cy="60.525" r="2.063"/>
<circle fill="#231F20" cx="39.121" cy="3.56" r="1.918"/>
<circle fill="#231F20" cx="39.121" cy="10.681" r="1.98"/>
<circle fill="#231F20" cx="39.121" cy="17.801" r="2.063"/>
<circle fill="#231F20" cx="39.121" cy="24.922" r="2.063"/>
<circle fill="#231F20" cx="39.121" cy="32.042" r="2.063"/>
<circle fill="#231F20" cx="39.121" cy="39.163" r="2.063"/>
<circle fill="#231F20" cx="39.121" cy="46.283" r="2.063"/>
<circle fill="#231F20" cx="39.121" cy="53.404" r="2.063"/>
<circle fill="#231F20" cx="39.121" cy="60.525" r="2.063"/>
<circle fill="#231F20" cx="46.221" cy="3.56" r="1.918"/>
<circle fill="#231F20" cx="46.221" cy="10.681" r="1.98"/>
<circle fill="#231F20" cx="46.221" cy="17.801" r="2.063"/>
<circle fill="#231F20" cx="46.221" cy="24.922" r="2.063"/>
<circle fill="#231F20" cx="46.221" cy="32.042" r="2.063"/>
<circle fill="#231F20" cx="46.221" cy="39.163" r="2.063"/>
<circle fill="#231F20" cx="46.221" cy="46.283" r="2.063"/>
<circle fill="#231F20" cx="46.221" cy="53.404" r="2.063"/>
<circle fill="#231F20" cx="46.221" cy="60.525" r="2.063"/>
<circle fill="#231F20" cx="53.341" cy="3.56" r="1.918"/>
<circle fill="#231F20" cx="53.341" cy="10.681" r="1.98"/>
<circle fill="#231F20" cx="53.341" cy="17.801" r="2.063"/>
<circle fill="#231F20" cx="53.341" cy="24.922" r="2.063"/>
<circle fill="#231F20" cx="53.341" cy="32.042" r="2.063"/>
<circle fill="#231F20" cx="53.341" cy="39.163" r="2.063"/>
<circle fill="#231F20" cx="53.341" cy="46.283" r="2.063"/>
<circle fill="#231F20" cx="53.341" cy="53.404" r="2.063"/>
<circle fill="#231F20" cx="53.341" cy="60.525" r="2.063"/>
<circle fill="#231F20" cx="60.441" cy="3.56" r="1.918"/>
<circle fill="#231F20" cx="60.441" cy="10.681" r="1.98"/>
<circle fill="#231F20" cx="60.441" cy="17.801" r="2.063"/>
<circle fill="#231F20" cx="60.441" cy="24.922" r="2.063"/>
<circle fill="#231F20" cx="60.441" cy="32.042" r="2.063"/>
<circle fill="#231F20" cx="60.441" cy="39.163" r="2.063"/>
<circle fill="#231F20" cx="60.441" cy="46.283" r="2.063"/>
<circle fill="#231F20" cx="60.441" cy="53.404" r="2.063"/>
<circle fill="#231F20" cx="60.441" cy="60.525" r="2.063"/>
</svg>
