<?xml version="1.0" encoding="utf-8"?>
<!-- Generator: Adobe Illustrator 15.0.0, SVG Export Plug-In . SVG Version: 6.00 Build 0)  -->
<!DOCTYPE svg PUBLIC "-//W3C//DTD SVG 1.1//EN" "http://www.w3.org/Graphics/SVG/1.1/DTD/svg11.dtd">
<svg version="1.1" id="Layer_1" xmlns="http://www.w3.org/2000/svg" xmlns:xlink="http://www.w3.org/1999/xlink" x="0px" y="0px"
	 width="64px" height="64px" viewBox="0 0 64 64" enable-background="new 0 0 64 64" xml:space="preserve">
<g id="Livello_1">
</g>
<g>
	<polygon fill="#4D4D4D" points="17.829,33.39 16.78,29.695 16.78,26.691 18.682,26.691 18.675,26.691 20.577,26.691 20.577,29.695 
		19.529,33.39 27.378,33.39 27.957,31.958 38.944,31.958 41.101,33.597 41.101,42.296 13.957,42.296 11.081,38.015 13.761,33.423 	
		"/>
</g>
<g>
	<path fill="#4D4D4D" d="M38.899,21.459c-2.587,0-4.692-2.105-4.692-4.692s2.105-4.692,4.692-4.692s4.691,2.105,4.691,4.692
		S41.486,21.459,38.899,21.459z M38.899,13.075c-2.036,0-3.692,1.656-3.692,3.692s1.656,3.692,3.692,3.692
		c2.035,0,3.691-1.656,3.691-3.692S40.935,13.075,38.899,13.075z"/>
</g>
<g>
	<path fill="#4D4D4D" d="M46.664,20.426c-2.018,0-3.659-1.642-3.659-3.659s1.642-3.659,3.659-3.659s3.659,1.642,3.659,3.659
		S48.682,20.426,46.664,20.426z M46.664,14.108c-1.466,0-2.659,1.193-2.659,2.659s1.193,2.659,2.659,2.659s2.659-1.193,2.659-2.659
		S48.13,14.108,46.664,14.108z"/>
</g>
<g>
	<path fill="#4D4D4D" d="M20.77,26.432h-1.673l4.128-12.104c0.982-2.198,3.148-3.602,5.528-3.602c3.331,0,6.041,2.71,6.041,6.041
		c0,2.316-1.352,4.458-3.443,5.455l-0.9,0.341L20.77,26.432z M20.491,25.432h0.086l10.382-4.129
		c1.707-0.816,2.834-2.603,2.834-4.536c0-2.78-2.261-5.041-5.041-5.041c-1.986,0-3.793,1.172-4.604,2.986l-0.195,0.508
		L20.491,25.432z"/>
</g>
<g>
	<polygon fill="#4D4D4D" points="41.82,31.939 53.325,31.939 53.325,33.458 47.393,33.458 47.393,38.981 50.987,38.981 
		50.987,45.817 43.797,45.817 43.797,46.483 54.438,46.483 54.438,47.683 9.284,47.683 9.284,47.091 11.26,47.091 11.26,43.321 
		41.774,43.321 	"/>
</g>
<g>
	<circle fill="#4D4D4D" cx="23.16" cy="49.147" r="3.625"/>
</g>
<g>
	<circle fill="#4D4D4D" cx="32.982" cy="49.147" r="3.625"/>
</g>
<g>
	<circle fill="#4D4D4D" cx="43.091" cy="49.147" r="3.625"/>
</g>
<g>
	<circle fill="#4D4D4D" cx="51.61" cy="49.667" r="3.105"/>
</g>
<g>
	<circle fill="#4D4D4D" cx="13.808" cy="49.667" r="3.107"/>
</g>
</svg>
