<?xml version="1.0" encoding="utf-8"?>
<!-- Generator: Adobe Illustrator 15.0.0, SVG Export Plug-In . SVG Version: 6.00 Build 0)  -->
<!DOCTYPE svg PUBLIC "-//W3C//DTD SVG 1.1//EN" "http://www.w3.org/Graphics/SVG/1.1/DTD/svg11.dtd">
<svg version="1.1" id="Livello_1" xmlns="http://www.w3.org/2000/svg" xmlns:xlink="http://www.w3.org/1999/xlink" x="0px" y="0px"
	 width="64px" height="64px" viewBox="0 0 64 64" enable-background="new 0 0 64 64" xml:space="preserve">
<path fill="#231F20" d="M50.346,36.102v10.27c0,0-9.363,9.373-16.234,9.373v-10.07L50.346,36.102z"/>
<path fill="#231F20" d="M17.784,35.988v10.328c0,0,9.416,9.427,16.327,9.427V45.616L17.784,35.988z"/>
<polygon fill="#FFFFFF" points="5.695,29.164 5.695,25.132 34.111,41.538 34.111,45.57 "/>
<polygon fill="#FFFFFF" points="62.527,29.164 62.527,25.132 34.111,41.538 34.111,45.57 "/>
<polygon fill="#231F20" stroke="#231F20" stroke-width="0.5387" stroke-miterlimit="10" points="5.695,24.715 34.059,41.121 
	62.422,24.715 34.059,8.31 "/>
<rect x="1.998" y="23.771" fill="#231F20" width="1.944" height="24.807"/>
<rect x="1.998" y="23.48" fill="#231F20" width="32.113" height="1.943"/>
<circle fill="#231F20" stroke="#231F20" stroke-width="0.2072" stroke-miterlimit="10" cx="2.969" cy="48.576" r="2.176"/>
<rect x="8.013" y="23.48" fill="#FFFFFF" width="26.098" height="1.943"/>
<polygon fill="none" stroke="#231F20" stroke-width="0.5713" stroke-miterlimit="10" points="5.695,25.132 34.111,41.538 
	34.111,45.921 5.695,29.164 "/>
<polygon fill="none" stroke="#231F20" stroke-width="0.5713" stroke-miterlimit="10" points="34.111,41.538 34.111,45.921 
	62.527,29.164 62.527,25.132 "/>
<path fill="#EC1C24" d="M114.354-4.224l-7.967,22.462c-0.761,4.656-2.285,15.343-2.285,15.343h-2.268c0,0,1.288-10.772,1.941-15.476
	c0.652-4.699,7.574-24.547,7.574-24.547L114.354-4.224z"/>
<path fill="#231F20" stroke="#231F20" stroke-width="0.914" stroke-miterlimit="10" d="M103.201,34.365l0.9-0.784l2.158-14.556
	l0.127-0.787l6.935-19.552l-0.169-0.481c0,0-0.291,0.019-0.408,0.018c-0.116-0.002-0.406-0.018-0.406-0.018l-7.561,21.316
	L103.201,34.365z"/>
<rect x="112.721" y="-19.305" fill="#231F20" width="3.133" height="9.141"/>
<path fill="#EC1C24" d="M114.354-4.224l7.968,22.462c0.761,4.656,2.706,15.343,2.706,15.343h2.256c0,0-1.697-10.772-2.352-15.476
	c-0.652-4.699-7.572-24.547-7.572-24.547L114.354-4.224z"/>
<circle fill="#231F20" stroke="#231F20" stroke-width="0.914" stroke-miterlimit="10" cx="115.047" cy="-8.347" r="4.829"/>
<rect x="111.111" y="-18.02" fill="#231F20" stroke="#EC1C24" stroke-width="0.0653" stroke-miterlimit="10" width="3.135" height="6.822"/>
<path fill="#FFFFFF" stroke="#231F20" stroke-width="0.914" stroke-miterlimit="10" d="M112.745-2.94l-7.968,22.461
	c-0.762,4.658-2.284,15.344-2.284,15.344h-2.269c0,0,1.289-10.773,1.941-15.475c0.654-4.701,7.573-24.549,7.573-24.549L112.745-2.94
	z"/>
<path fill="#FFFFFF" stroke="#231F20" stroke-width="0.914" stroke-miterlimit="10" d="M112.745-2.94l7.967,22.461
	c0.763,4.658,2.707,15.344,2.707,15.344h2.257c0,0-1.697-10.773-2.352-15.475S115.75-5.158,115.75-5.158L112.745-2.94z"/>
<polygon fill="#231F20" stroke="#EC1C24" stroke-width="0.0653" stroke-miterlimit="10" points="114.246,-18.02 114.24,-11.198 
	115.854,-12.481 115.854,-19.305 "/>
<polygon fill="#231F20" stroke="#EC1C24" stroke-width="0.0653" stroke-miterlimit="10" points="111.111,-18.02 114.246,-18.02 
	115.854,-19.305 112.721,-19.305 "/>
<polygon fill="#231F20" stroke="#231F20" stroke-width="0.914" stroke-miterlimit="10" points="116.264,-3.673 118.035,-4.553 
	120.512,2.858 121.973,7.525 123.098,11.092 124.057,14.415 124.214,15.002 124.381,15.65 124.521,16.219 124.646,16.758 
	124.756,17.279 124.882,18.005 125.132,19.759 127.232,33.479 126.412,34.365 123.378,20.034 123.126,18.455 122.971,17.745 
	122.811,17.088 122.646,16.443 122.459,15.738 122.186,14.752 121.876,13.682 121.463,12.288 121.005,10.785 "/>
<path fill="#FFFFFF" stroke="#231F20" stroke-width="0.914" stroke-miterlimit="10" d="M108.794-3.173
	c0.886,1.001,2.179,1.632,3.62,1.632c2.667,0,4.829-2.162,4.829-4.829s-2.162-4.829-4.829-4.829s-4.829,2.162-4.829,4.829
	C107.585-5.144,108.041-4.025,108.794-3.173"/>
<polygon fill="#FFFFFF" stroke="#231F20" stroke-width="0.914" stroke-miterlimit="10" points="111.111,-11.198 111.111,-18.02 
	112.721,-19.305 115.854,-19.305 115.854,-12.481 114.24,-11.198 "/>
<line fill="none" stroke="#231F20" stroke-width="0.6529" stroke-miterlimit="10" x1="114.246" y1="-11.198" x2="114.246" y2="-18.02"/>
<line fill="none" stroke="#231F20" stroke-width="0.6529" stroke-miterlimit="10" x1="111.111" y1="-18.02" x2="114.246" y2="-18.02"/>
<line fill="none" stroke="#231F20" stroke-width="0.6529" stroke-miterlimit="10" x1="114.246" y1="-18.02" x2="115.854" y2="-19.305"/>
<ellipse fill="#FFFFFF" stroke="#231F20" stroke-width="0.3982" stroke-miterlimit="10" cx="95.545" cy="7.956" rx="0.739" ry="1.196"/>
<polyline fill="#FFFFFF" stroke="#231F20" stroke-width="0.3982" stroke-miterlimit="10" points="95.545,6.759 129.283,6.759 
	129.283,9.153 95.545,9.153 "/>
<ellipse fill="#FFFFFF" stroke="#231F20" stroke-width="0.3982" stroke-miterlimit="10" cx="129.283" cy="7.956" rx="0.738" ry="1.196"/>
<polyline fill="none" stroke="#231F20" stroke-width="0.3352" stroke-miterlimit="10" points="102.217,38.141 104.206,33.744 
	102.868,34.539 102.217,38.141 100.225,34.622 "/>
<polyline fill="none" stroke="#231F20" stroke-width="0.3352" stroke-miterlimit="10" points="125.292,38.141 127.283,33.744 
	125.943,34.539 125.292,38.141 123.303,34.622 "/>
</svg>
