<?xml version="1.0" encoding="utf-8"?>
<!-- Generator: Adobe Illustrator 15.0.0, SVG Export Plug-In . SVG Version: 6.00 Build 0)  -->
<!DOCTYPE svg PUBLIC "-//W3C//DTD SVG 1.1//EN" "http://www.w3.org/Graphics/SVG/1.1/DTD/svg11.dtd">
<svg version="1.1" id="Livello_1" xmlns="http://www.w3.org/2000/svg" xmlns:xlink="http://www.w3.org/1999/xlink" x="0px" y="0px"
	 width="64px" height="64px" viewBox="0 0 64 64" enable-background="new 0 0 64 64" xml:space="preserve">
<path fill="#FF0000" d="M50.346,36.102v10.27c0,0-9.363,9.373-16.234,9.373v-10.07L50.346,36.102z"/>
<path fill="#FF0000" d="M17.784,35.988v10.328c0,0,9.416,9.427,16.327,9.427V45.616L17.784,35.988z"/>
<polygon fill="#FFFFFF" points="5.695,29.164 5.695,25.132 34.111,41.538 34.111,45.57 "/>
<polygon fill="#FFFFFF" points="62.527,29.164 62.527,25.132 34.111,41.538 34.111,45.57 "/>
<polygon fill="#FF0000" stroke="#FF0000" stroke-width="0.5387" stroke-miterlimit="10" points="5.695,24.715 34.059,41.121 
	62.422,24.715 34.059,8.31 "/>
<rect x="1.998" y="23.771" fill="#FF0000" width="1.944" height="24.807"/>
<rect x="1.998" y="23.48" fill="#FF0000" width="32.113" height="1.943"/>
<circle fill="#FF0000" stroke="#FF0000" stroke-width="0.2072" stroke-miterlimit="10" cx="2.969" cy="48.576" r="2.176"/>
<rect x="8.013" y="23.48" fill="#FFFFFF" width="26.098" height="1.943"/>
<polygon fill="none" stroke="#FF0000" stroke-width="0.5713" stroke-miterlimit="10" points="5.695,25.132 34.111,41.538 
	34.111,45.921 5.695,29.164 "/>
<polygon fill="none" stroke="#FF0000" stroke-width="0.5713" stroke-miterlimit="10" points="34.111,41.538 34.111,45.921 
	62.527,29.164 62.527,25.132 "/>
</svg>
