<?xml version="1.0" encoding="UTF-8" standalone="no"?>
<svg
   xmlns:dc="http://purl.org/dc/elements/1.1/"
   xmlns:cc="http://creativecommons.org/ns#"
   xmlns:rdf="http://www.w3.org/1999/02/22-rdf-syntax-ns#"
   xmlns:svg="http://www.w3.org/2000/svg"
   xmlns="http://www.w3.org/2000/svg"
   xmlns:sodipodi="http://sodipodi.sourceforge.net/DTD/sodipodi-0.dtd"
   xmlns:inkscape="http://www.inkscape.org/namespaces/inkscape"
   width="32"
   height="32"
   viewBox="0 0 8.4666665 8.4666669"
   version="1.1"
   id="svg8"
   inkscape:version="1.0.1 (3bc2e813f5, 2020-09-07)"
   sodipodi:docname="heatmap.svg">
  <defs
     id="defs2" />
  <sodipodi:namedview
     id="base"
     pagecolor="#ffffff"
     bordercolor="#666666"
     borderopacity="1.0"
     inkscape:pageopacity="0.0"
     inkscape:pageshadow="2"
     inkscape:zoom="3.959798"
     inkscape:cx="30.721471"
     inkscape:cy="-7.8586006"
     inkscape:document-units="mm"
     inkscape:current-layer="layer1"
     inkscape:document-rotation="0"
     showgrid="false"
     units="px"
     inkscape:window-width="1920"
     inkscape:window-height="1017"
     inkscape:window-x="1912"
     inkscape:window-y="-8"
     inkscape:window-maximized="1" />
  <metadata
     id="metadata5">
    <rdf:RDF>
      <cc:Work
         rdf:about="">
        <dc:format>image/svg+xml</dc:format>
        <dc:type
           rdf:resource="http://purl.org/dc/dcmitype/StillImage" />
        <dc:title></dc:title>
      </cc:Work>
    </rdf:RDF>
  </metadata>
  <g
     inkscape:label="Livello 1"
     inkscape:groupmode="layer"
     id="layer1">
    <path
       id="path1000"
       style="color:#000000;font-style:normal;font-variant:normal;font-weight:normal;font-stretch:normal;font-size:medium;line-height:normal;font-family:sans-serif;font-variant-ligatures:normal;font-variant-position:normal;font-variant-caps:normal;font-variant-numeric:normal;font-variant-alternates:normal;font-variant-east-asian:normal;font-feature-settings:normal;font-variation-settings:normal;text-indent:0;text-align:start;text-decoration:none;text-decoration-line:none;text-decoration-style:solid;text-decoration-color:#000000;letter-spacing:normal;word-spacing:normal;text-transform:none;writing-mode:lr-tb;direction:ltr;text-orientation:mixed;dominant-baseline:auto;baseline-shift:baseline;text-anchor:start;white-space:normal;shape-padding:0;shape-margin:0;inline-size:0;clip-rule:nonzero;display:inline;overflow:visible;visibility:visible;isolation:auto;mix-blend-mode:normal;color-interpolation:sRGB;color-interpolation-filters:linearRGB;solid-color:#000000;solid-opacity:1;vector-effect:none;fill:#000000;fill-opacity:1;fill-rule:nonzero;stroke:none;stroke-width:0.708231;stroke-linecap:butt;stroke-linejoin:round;stroke-miterlimit:4;stroke-dasharray:none;stroke-dashoffset:0;stroke-opacity:1;color-rendering:auto;image-rendering:auto;shape-rendering:auto;text-rendering:auto;enable-background:accumulate;stop-color:#000000"
       d="M 8.5097656 -0.00390625 A 0.35415069 0.35415069 0 0 0 8.4726562 -0.001953125 A 0.35415069 0.35415069 0 0 0 8.4394531 0.00390625 A 0.35415069 0.35415069 0 0 0 8.3535156 -0.001953125 A 0.35415069 0.35415069 0 0 0 8.0488281 0.203125 L 0.66210938 4.375 A 0.35415069 0.35415069 0 0 0 0.47851562 4.6777344 L 0.47851562 31.644531 A 0.35415069 0.35415069 0 0 0 1.0097656 31.955078 L 8.4296875 27.763672 L 15.664062 31.84375 A 0.35483297 0.35483297 0 0 0 16 32 A 0.35415069 0.35415069 0 0 0 16.001953 32 A 0.35415069 0.35415069 0 0 0 16.003906 32 A 0.35415069 0.35415069 0 0 0 16.333984 31.84375 L 23.554688 27.761719 L 30.986328 31.955078 A 0.35415069 0.35415069 0 0 0 31.519531 31.644531 L 31.519531 4.6777344 A 0.35415069 0.35415069 0 0 0 31.335938 4.3671875 L 23.949219 0.203125 A 0.35483297 0.35483297 0 0 0 23.634766 -0.00390625 A 0.35483297 0.35483297 0 0 0 23.597656 -0.001953125 A 0.35483297 0.35483297 0 0 0 23.558594 0.00390625 A 0.35415069 0.35415069 0 0 0 23.480469 -0.001953125 A 0.35415069 0.35415069 0 0 0 23.177734 0.19726562 L 16.001953 4.25 L 8.8222656 0.19726562 A 0.35415069 0.35415069 0 0 0 8.5097656 -0.00390625 z M 7.6152344 1.8730469 L 7.6152344 6.1679688 A 5.3337721 5.3337721 0 0 0 3.1484375 11.427734 A 5.3337721 5.3337721 0 0 0 7.6152344 16.689453 L 7.6152344 26.794922 L 1.71875 30.130859 L 1.71875 5.1953125 L 7.6152344 1.8730469 z M 9.2558594 1.8730469 L 15.152344 5.1953125 L 15.152344 30.130859 L 9.2558594 26.800781 L 9.2558594 16.705078 A 5.3337721 5.3337721 0 0 0 13.816406 11.427734 A 5.3337721 5.3337721 0 0 0 9.2558594 6.1503906 L 9.2558594 1.8730469 z M 22.742188 1.8730469 L 22.742188 26.794922 L 16.84375 30.123047 L 16.84375 5.1953125 L 22.742188 1.8730469 z M 24.380859 1.8730469 L 30.279297 5.1953125 L 30.279297 30.130859 L 24.380859 26.800781 L 24.380859 1.8730469 z M 19.583984 17.509766 A 1.8660959 1.8660959 0 0 0 17.777344 19.375 A 1.8660959 1.8660959 0 0 0 19.642578 21.240234 A 1.8660959 1.8660959 0 0 0 21.509766 19.375 A 1.8660959 1.8660959 0 0 0 19.642578 17.509766 A 1.8660959 1.8660959 0 0 0 19.583984 17.509766 z "
       transform="scale(0.26458333)" />
  </g>
</svg>
