<?xml version="1.0" encoding="UTF-8" standalone="no"?>
<svg
   xmlns:dc="http://purl.org/dc/elements/1.1/"
   xmlns:cc="http://creativecommons.org/ns#"
   xmlns:rdf="http://www.w3.org/1999/02/22-rdf-syntax-ns#"
   xmlns:svg="http://www.w3.org/2000/svg"
   xmlns="http://www.w3.org/2000/svg"
   xmlns:sodipodi="http://sodipodi.sourceforge.net/DTD/sodipodi-0.dtd"
   xmlns:inkscape="http://www.inkscape.org/namespaces/inkscape"
   width="32"
   height="32"
   viewBox="0 0 8.4666665 8.4666669"
   version="1.1"
   id="svg8"
   inkscape:version="1.0.1 (3bc2e813f5, 2020-09-07)"
   sodipodi:docname="map.svg">
  <defs
     id="defs2" />
  <sodipodi:namedview
     id="base"
     pagecolor="#ffffff"
     bordercolor="#666666"
     borderopacity="1.0"
     inkscape:pageopacity="0.0"
     inkscape:pageshadow="2"
     inkscape:zoom="11.2"
     inkscape:cx="15.288258"
     inkscape:cy="22.566887"
     inkscape:document-units="mm"
     inkscape:current-layer="layer1"
     inkscape:document-rotation="0"
     showgrid="false"
     units="px"
     inkscape:window-width="1920"
     inkscape:window-height="1017"
     inkscape:window-x="1912"
     inkscape:window-y="-8"
     inkscape:window-maximized="1" />
  <metadata
     id="metadata5">
    <rdf:RDF>
      <cc:Work
         rdf:about="">
        <dc:format>image/svg+xml</dc:format>
        <dc:type
           rdf:resource="http://purl.org/dc/dcmitype/StillImage" />
        <dc:title></dc:title>
      </cc:Work>
    </rdf:RDF>
  </metadata>
  <g
     inkscape:label="Livello 1"
     inkscape:groupmode="layer"
     id="layer1">
    <path
       id="path1000"
       style="color:#000000;font-style:normal;font-variant:normal;font-weight:normal;font-stretch:normal;font-size:medium;line-height:normal;font-family:sans-serif;font-variant-ligatures:normal;font-variant-position:normal;font-variant-caps:normal;font-variant-numeric:normal;font-variant-alternates:normal;font-variant-east-asian:normal;font-feature-settings:normal;font-variation-settings:normal;text-indent:0;text-align:start;text-decoration:none;text-decoration-line:none;text-decoration-style:solid;text-decoration-color:#000000;letter-spacing:normal;word-spacing:normal;text-transform:none;writing-mode:lr-tb;direction:ltr;text-orientation:mixed;dominant-baseline:auto;baseline-shift:baseline;text-anchor:start;white-space:normal;shape-padding:0;shape-margin:0;inline-size:0;clip-rule:nonzero;display:inline;overflow:visible;visibility:visible;isolation:auto;mix-blend-mode:normal;color-interpolation:sRGB;color-interpolation-filters:linearRGB;solid-color:#000000;solid-opacity:1;vector-effect:none;fill:#000000;fill-opacity:1;fill-rule:nonzero;stroke:none;stroke-width:0.187386;stroke-linecap:butt;stroke-linejoin:round;stroke-miterlimit:4;stroke-dasharray:none;stroke-dashoffset:0;stroke-opacity:1;color-rendering:auto;image-rendering:auto;shape-rendering:auto;text-rendering:auto;enable-background:accumulate;stop-color:#000000"
       d="m 2.2517993,-0.00100754 a 0.09370237,0.09370237 0 0 0 -0.00982,5.1699761e-4 0.09370237,0.09370237 0 0 0 -0.00879,0.001500002 0.09370237,0.09370237 0 0 0 -0.022738,-0.001500002 A 0.09370237,0.09370237 0 0 0 2.1298363,0.05376946 L 0.17544018,1.1575785 a 0.09370237,0.09370237 0 0 0 -0.048576,0.0801 v 7.134965 a 0.09370237,0.09370237 0 0 0 0.1405599,0.08217 l 1.96318762,-1.108976 1.9140952,1.07952 a 0.09388289,0.09388289 0 0 0 0.088883,0.04134 0.09370237,0.09370237 0 0 0 5.167e-4,0 0.09370237,0.09370237 0 0 0 5.167e-4,0 0.09370237,0.09370237 0 0 0 0.087333,-0.04134 l 1.9104776,-1.080037 1.9662878,1.109493 a 0.09370237,0.09370237 0 0 0 0.141077,-0.08217 v -7.134965 a 0.09370237,0.09370237 0 0 0 -0.04909,-0.08216 L 6.3368212,0.05376946 a 0.09388289,0.09388289 0 0 0 -0.083199,-0.05478 0.09388289,0.09388289 0 0 0 -0.00982,5.1699761e-4 A 0.09388289,0.09388289 0 0 0 6.2334672,0.00100646 0.09370237,0.09370237 0 0 0 6.2127962,-4.9354239e-4 0.09370237,0.09370237 0 0 0 6.1326982,0.05221646 L 4.2341071,1.1245055 2.3344816,0.05221946 a 0.09370237,0.09370237 0 0 0 -0.082682,-0.05323 z m -0.2366781,0.496611 V 7.0895155 l -1.56011152,0.882634 v -6.59753 z m 0.434082,0 1.5601115,0.87901604 v 6.59753 L 2.4492032,7.0910665 Z m 3.5682577,0 V 7.0895155 l -1.5606283,0.880567 v -6.595463 z m 0.4335651,0 1.5606287,0.87901604 v 6.59753 L 6.451026,7.0910665 Z" />
  </g>
</svg>
